M48
; DRILL file {KiCad 7.0.7} date 2023 October 24, Tuesday 13:26:26
; FORMAT={-:-/ absolute / inch / decimal}
; #@! TF.CreationDate,2023-10-24T13:26:26-04:00
; #@! TF.GenerationSoftware,Kicad,Pcbnew,7.0.7
; #@! TF.FileFunction,MixedPlating,1,2
FMAT,2
INCH
; #@! TA.AperFunction,Plated,PTH,ViaDrill
T1C0.0394
; #@! TA.AperFunction,Plated,PTH,ComponentDrill
T2C0.0394
; #@! TA.AperFunction,Plated,PTH,ComponentDrill
T3C0.0420
; #@! TA.AperFunction,Plated,PTH,ComponentDrill
T4C0.0531
; #@! TA.AperFunction,Plated,PTH,ComponentDrill
T5C0.0673
; #@! TA.AperFunction,Plated,PTH,ComponentDrill
T6C0.0689
; #@! TA.AperFunction,Plated,PTH,ComponentDrill
T7C0.1890
; #@! TA.AperFunction,NonPlated,NPTH,ComponentDrill
T8C0.1575
%
G90
G05
T1
X1.6448Y-2.3307
X1.6457Y-1.9291
X1.6457Y-2.9291
X1.6457Y-3.3228
X1.8504Y-5.0866
X2.2126Y-5.0945
X2.3228Y-5.0945
X2.4409Y-5.0945
X3.3071Y-2.2362
X3.3386Y-3.6299
X4.7008Y-4.5669
X4.9037Y-2.5986
X5.9648Y-4.7644
X6.1732Y-2.3622
X7.7087Y-4.7874
X7.7087Y-4.9291
X7.8898Y-4.7874
X7.8898Y-4.9291
T2
X1.6448Y-2.0811
X1.6448Y-2.1811
X1.6448Y-3.0811
X1.6448Y-3.1811
X1.6448Y-4.6811
X1.6448Y-4.7811
T3
X3.311Y-2.3622
X3.3346Y-3.7323
X3.6063Y-2.3622
X3.6299Y-3.7323
T4
X2.0207Y-4.5813
X2.0207Y-4.8813
T5
X7.5591Y-2.4213
X7.5591Y-2.5713
X7.5591Y-3.0118
X7.5591Y-3.1618
X7.5591Y-3.6024
X7.5591Y-3.7524
X7.5591Y-4.1929
X7.5591Y-4.3429
X7.5591Y-4.7835
X7.5591Y-4.9335
X8.0512Y-2.4213
X8.0512Y-2.5713
X8.0512Y-3.0118
X8.0512Y-3.1618
X8.0512Y-3.6024
X8.0512Y-3.7524
X8.0512Y-4.1929
X8.0512Y-4.3429
X8.0512Y-4.7835
X8.0512Y-4.9335
T6
X2.0207Y-4.3813
X2.0207Y-5.0813
T7
X5.185Y-2.5989
X5.185Y-3.1889
X5.185Y-4.1733
X5.185Y-4.7633
X5.6811Y-2.5989
X5.6811Y-3.1889
X5.6811Y-4.1733
X5.6811Y-4.7633
T8
X1.5748Y-1.4311
X1.5748Y-5.9311
X8.6614Y-1.4311
X8.6614Y-5.9311
T0
M30
