G04 #@! TF.GenerationSoftware,KiCad,Pcbnew,7.0.7*
G04 #@! TF.CreationDate,2023-10-24T13:27:02-04:00*
G04 #@! TF.ProjectId,SchineLab_CoilFET_Board,53636869-6e65-44c6-9162-5f436f696c46,rev?*
G04 #@! TF.SameCoordinates,Original*
G04 #@! TF.FileFunction,Legend,Top*
G04 #@! TF.FilePolarity,Positive*
%FSLAX46Y46*%
G04 Gerber Fmt 4.6, Leading zero omitted, Abs format (unit mm)*
G04 Created by KiCad (PCBNEW 7.0.7) date 2023-10-24 13:27:02*
%MOMM*%
%LPD*%
G01*
G04 APERTURE LIST*
%ADD10C,0.150000*%
%ADD11C,0.100000*%
%ADD12C,0.508000*%
%ADD13C,0.120000*%
G04 APERTURE END LIST*
D10*
X219238095Y-146104819D02*
X219238095Y-145104819D01*
X219238095Y-145581009D02*
X219809523Y-145581009D01*
X219809523Y-146104819D02*
X219809523Y-145104819D01*
X220714285Y-145438152D02*
X220714285Y-146104819D01*
X220476190Y-145057200D02*
X220238095Y-145771485D01*
X220238095Y-145771485D02*
X220857142Y-145771485D01*
X39238095Y-146104819D02*
X39238095Y-145104819D01*
X39238095Y-145581009D02*
X39809523Y-145581009D01*
X39809523Y-146104819D02*
X39809523Y-145104819D01*
X40190476Y-145104819D02*
X40809523Y-145104819D01*
X40809523Y-145104819D02*
X40476190Y-145485771D01*
X40476190Y-145485771D02*
X40619047Y-145485771D01*
X40619047Y-145485771D02*
X40714285Y-145533390D01*
X40714285Y-145533390D02*
X40761904Y-145581009D01*
X40761904Y-145581009D02*
X40809523Y-145676247D01*
X40809523Y-145676247D02*
X40809523Y-145914342D01*
X40809523Y-145914342D02*
X40761904Y-146009580D01*
X40761904Y-146009580D02*
X40714285Y-146057200D01*
X40714285Y-146057200D02*
X40619047Y-146104819D01*
X40619047Y-146104819D02*
X40333333Y-146104819D01*
X40333333Y-146104819D02*
X40238095Y-146057200D01*
X40238095Y-146057200D02*
X40190476Y-146009580D01*
X219238095Y-31804819D02*
X219238095Y-30804819D01*
X219238095Y-31281009D02*
X219809523Y-31281009D01*
X219809523Y-31804819D02*
X219809523Y-30804819D01*
X220238095Y-30900057D02*
X220285714Y-30852438D01*
X220285714Y-30852438D02*
X220380952Y-30804819D01*
X220380952Y-30804819D02*
X220619047Y-30804819D01*
X220619047Y-30804819D02*
X220714285Y-30852438D01*
X220714285Y-30852438D02*
X220761904Y-30900057D01*
X220761904Y-30900057D02*
X220809523Y-30995295D01*
X220809523Y-30995295D02*
X220809523Y-31090533D01*
X220809523Y-31090533D02*
X220761904Y-31233390D01*
X220761904Y-31233390D02*
X220190476Y-31804819D01*
X220190476Y-31804819D02*
X220809523Y-31804819D01*
X39238095Y-31804819D02*
X39238095Y-30804819D01*
X39238095Y-31281009D02*
X39809523Y-31281009D01*
X39809523Y-31804819D02*
X39809523Y-30804819D01*
X40809523Y-31804819D02*
X40238095Y-31804819D01*
X40523809Y-31804819D02*
X40523809Y-30804819D01*
X40523809Y-30804819D02*
X40428571Y-30947676D01*
X40428571Y-30947676D02*
X40333333Y-31042914D01*
X40333333Y-31042914D02*
X40238095Y-31090533D01*
X153833333Y-120024819D02*
X153500000Y-119548628D01*
X153261905Y-120024819D02*
X153261905Y-119024819D01*
X153261905Y-119024819D02*
X153642857Y-119024819D01*
X153642857Y-119024819D02*
X153738095Y-119072438D01*
X153738095Y-119072438D02*
X153785714Y-119120057D01*
X153785714Y-119120057D02*
X153833333Y-119215295D01*
X153833333Y-119215295D02*
X153833333Y-119358152D01*
X153833333Y-119358152D02*
X153785714Y-119453390D01*
X153785714Y-119453390D02*
X153738095Y-119501009D01*
X153738095Y-119501009D02*
X153642857Y-119548628D01*
X153642857Y-119548628D02*
X153261905Y-119548628D01*
X154214286Y-119120057D02*
X154261905Y-119072438D01*
X154261905Y-119072438D02*
X154357143Y-119024819D01*
X154357143Y-119024819D02*
X154595238Y-119024819D01*
X154595238Y-119024819D02*
X154690476Y-119072438D01*
X154690476Y-119072438D02*
X154738095Y-119120057D01*
X154738095Y-119120057D02*
X154785714Y-119215295D01*
X154785714Y-119215295D02*
X154785714Y-119310533D01*
X154785714Y-119310533D02*
X154738095Y-119453390D01*
X154738095Y-119453390D02*
X154166667Y-120024819D01*
X154166667Y-120024819D02*
X154785714Y-120024819D01*
X121833333Y-67884819D02*
X121500000Y-67408628D01*
X121261905Y-67884819D02*
X121261905Y-66884819D01*
X121261905Y-66884819D02*
X121642857Y-66884819D01*
X121642857Y-66884819D02*
X121738095Y-66932438D01*
X121738095Y-66932438D02*
X121785714Y-66980057D01*
X121785714Y-66980057D02*
X121833333Y-67075295D01*
X121833333Y-67075295D02*
X121833333Y-67218152D01*
X121833333Y-67218152D02*
X121785714Y-67313390D01*
X121785714Y-67313390D02*
X121738095Y-67361009D01*
X121738095Y-67361009D02*
X121642857Y-67408628D01*
X121642857Y-67408628D02*
X121261905Y-67408628D01*
X122785714Y-67884819D02*
X122214286Y-67884819D01*
X122500000Y-67884819D02*
X122500000Y-66884819D01*
X122500000Y-66884819D02*
X122404762Y-67027676D01*
X122404762Y-67027676D02*
X122309524Y-67122914D01*
X122309524Y-67122914D02*
X122214286Y-67170533D01*
X138050057Y-73600238D02*
X138002438Y-73695476D01*
X138002438Y-73695476D02*
X137907200Y-73790714D01*
X137907200Y-73790714D02*
X137764342Y-73933571D01*
X137764342Y-73933571D02*
X137716723Y-74028809D01*
X137716723Y-74028809D02*
X137716723Y-74124047D01*
X137954819Y-74076428D02*
X137907200Y-74171666D01*
X137907200Y-74171666D02*
X137811961Y-74266904D01*
X137811961Y-74266904D02*
X137621485Y-74314523D01*
X137621485Y-74314523D02*
X137288152Y-74314523D01*
X137288152Y-74314523D02*
X137097676Y-74266904D01*
X137097676Y-74266904D02*
X137002438Y-74171666D01*
X137002438Y-74171666D02*
X136954819Y-74076428D01*
X136954819Y-74076428D02*
X136954819Y-73885952D01*
X136954819Y-73885952D02*
X137002438Y-73790714D01*
X137002438Y-73790714D02*
X137097676Y-73695476D01*
X137097676Y-73695476D02*
X137288152Y-73647857D01*
X137288152Y-73647857D02*
X137621485Y-73647857D01*
X137621485Y-73647857D02*
X137811961Y-73695476D01*
X137811961Y-73695476D02*
X137907200Y-73790714D01*
X137907200Y-73790714D02*
X137954819Y-73885952D01*
X137954819Y-73885952D02*
X137954819Y-74076428D01*
X137954819Y-72695476D02*
X137954819Y-73266904D01*
X137954819Y-72981190D02*
X136954819Y-72981190D01*
X136954819Y-72981190D02*
X137097676Y-73076428D01*
X137097676Y-73076428D02*
X137192914Y-73171666D01*
X137192914Y-73171666D02*
X137240533Y-73266904D01*
X128247200Y-87760713D02*
X128294819Y-87617856D01*
X128294819Y-87617856D02*
X128294819Y-87379761D01*
X128294819Y-87379761D02*
X128247200Y-87284523D01*
X128247200Y-87284523D02*
X128199580Y-87236904D01*
X128199580Y-87236904D02*
X128104342Y-87189285D01*
X128104342Y-87189285D02*
X128009104Y-87189285D01*
X128009104Y-87189285D02*
X127913866Y-87236904D01*
X127913866Y-87236904D02*
X127866247Y-87284523D01*
X127866247Y-87284523D02*
X127818628Y-87379761D01*
X127818628Y-87379761D02*
X127771009Y-87570237D01*
X127771009Y-87570237D02*
X127723390Y-87665475D01*
X127723390Y-87665475D02*
X127675771Y-87713094D01*
X127675771Y-87713094D02*
X127580533Y-87760713D01*
X127580533Y-87760713D02*
X127485295Y-87760713D01*
X127485295Y-87760713D02*
X127390057Y-87713094D01*
X127390057Y-87713094D02*
X127342438Y-87665475D01*
X127342438Y-87665475D02*
X127294819Y-87570237D01*
X127294819Y-87570237D02*
X127294819Y-87332142D01*
X127294819Y-87332142D02*
X127342438Y-87189285D01*
X148567200Y-87760713D02*
X148614819Y-87617856D01*
X148614819Y-87617856D02*
X148614819Y-87379761D01*
X148614819Y-87379761D02*
X148567200Y-87284523D01*
X148567200Y-87284523D02*
X148519580Y-87236904D01*
X148519580Y-87236904D02*
X148424342Y-87189285D01*
X148424342Y-87189285D02*
X148329104Y-87189285D01*
X148329104Y-87189285D02*
X148233866Y-87236904D01*
X148233866Y-87236904D02*
X148186247Y-87284523D01*
X148186247Y-87284523D02*
X148138628Y-87379761D01*
X148138628Y-87379761D02*
X148091009Y-87570237D01*
X148091009Y-87570237D02*
X148043390Y-87665475D01*
X148043390Y-87665475D02*
X147995771Y-87713094D01*
X147995771Y-87713094D02*
X147900533Y-87760713D01*
X147900533Y-87760713D02*
X147805295Y-87760713D01*
X147805295Y-87760713D02*
X147710057Y-87713094D01*
X147710057Y-87713094D02*
X147662438Y-87665475D01*
X147662438Y-87665475D02*
X147614819Y-87570237D01*
X147614819Y-87570237D02*
X147614819Y-87332142D01*
X147614819Y-87332142D02*
X147662438Y-87189285D01*
X127342438Y-59273095D02*
X127294819Y-59368333D01*
X127294819Y-59368333D02*
X127294819Y-59511190D01*
X127294819Y-59511190D02*
X127342438Y-59654047D01*
X127342438Y-59654047D02*
X127437676Y-59749285D01*
X127437676Y-59749285D02*
X127532914Y-59796904D01*
X127532914Y-59796904D02*
X127723390Y-59844523D01*
X127723390Y-59844523D02*
X127866247Y-59844523D01*
X127866247Y-59844523D02*
X128056723Y-59796904D01*
X128056723Y-59796904D02*
X128151961Y-59749285D01*
X128151961Y-59749285D02*
X128247200Y-59654047D01*
X128247200Y-59654047D02*
X128294819Y-59511190D01*
X128294819Y-59511190D02*
X128294819Y-59415952D01*
X128294819Y-59415952D02*
X128247200Y-59273095D01*
X128247200Y-59273095D02*
X128199580Y-59225476D01*
X128199580Y-59225476D02*
X127866247Y-59225476D01*
X127866247Y-59225476D02*
X127866247Y-59415952D01*
X147344819Y-59796904D02*
X146344819Y-59796904D01*
X146344819Y-59796904D02*
X146344819Y-59558809D01*
X146344819Y-59558809D02*
X146392438Y-59415952D01*
X146392438Y-59415952D02*
X146487676Y-59320714D01*
X146487676Y-59320714D02*
X146582914Y-59273095D01*
X146582914Y-59273095D02*
X146773390Y-59225476D01*
X146773390Y-59225476D02*
X146916247Y-59225476D01*
X146916247Y-59225476D02*
X147106723Y-59273095D01*
X147106723Y-59273095D02*
X147201961Y-59320714D01*
X147201961Y-59320714D02*
X147297200Y-59415952D01*
X147297200Y-59415952D02*
X147344819Y-59558809D01*
X147344819Y-59558809D02*
X147344819Y-59796904D01*
X139050057Y-113590238D02*
X139002438Y-113685476D01*
X139002438Y-113685476D02*
X138907200Y-113780714D01*
X138907200Y-113780714D02*
X138764342Y-113923571D01*
X138764342Y-113923571D02*
X138716723Y-114018809D01*
X138716723Y-114018809D02*
X138716723Y-114114047D01*
X138954819Y-114066428D02*
X138907200Y-114161666D01*
X138907200Y-114161666D02*
X138811961Y-114256904D01*
X138811961Y-114256904D02*
X138621485Y-114304523D01*
X138621485Y-114304523D02*
X138288152Y-114304523D01*
X138288152Y-114304523D02*
X138097676Y-114256904D01*
X138097676Y-114256904D02*
X138002438Y-114161666D01*
X138002438Y-114161666D02*
X137954819Y-114066428D01*
X137954819Y-114066428D02*
X137954819Y-113875952D01*
X137954819Y-113875952D02*
X138002438Y-113780714D01*
X138002438Y-113780714D02*
X138097676Y-113685476D01*
X138097676Y-113685476D02*
X138288152Y-113637857D01*
X138288152Y-113637857D02*
X138621485Y-113637857D01*
X138621485Y-113637857D02*
X138811961Y-113685476D01*
X138811961Y-113685476D02*
X138907200Y-113780714D01*
X138907200Y-113780714D02*
X138954819Y-113875952D01*
X138954819Y-113875952D02*
X138954819Y-114066428D01*
X138050057Y-113256904D02*
X138002438Y-113209285D01*
X138002438Y-113209285D02*
X137954819Y-113114047D01*
X137954819Y-113114047D02*
X137954819Y-112875952D01*
X137954819Y-112875952D02*
X138002438Y-112780714D01*
X138002438Y-112780714D02*
X138050057Y-112733095D01*
X138050057Y-112733095D02*
X138145295Y-112685476D01*
X138145295Y-112685476D02*
X138240533Y-112685476D01*
X138240533Y-112685476D02*
X138383390Y-112733095D01*
X138383390Y-112733095D02*
X138954819Y-113304523D01*
X138954819Y-113304523D02*
X138954819Y-112685476D01*
X147662438Y-127203095D02*
X147614819Y-127298333D01*
X147614819Y-127298333D02*
X147614819Y-127441190D01*
X147614819Y-127441190D02*
X147662438Y-127584047D01*
X147662438Y-127584047D02*
X147757676Y-127679285D01*
X147757676Y-127679285D02*
X147852914Y-127726904D01*
X147852914Y-127726904D02*
X148043390Y-127774523D01*
X148043390Y-127774523D02*
X148186247Y-127774523D01*
X148186247Y-127774523D02*
X148376723Y-127726904D01*
X148376723Y-127726904D02*
X148471961Y-127679285D01*
X148471961Y-127679285D02*
X148567200Y-127584047D01*
X148567200Y-127584047D02*
X148614819Y-127441190D01*
X148614819Y-127441190D02*
X148614819Y-127345952D01*
X148614819Y-127345952D02*
X148567200Y-127203095D01*
X148567200Y-127203095D02*
X148519580Y-127155476D01*
X148519580Y-127155476D02*
X148186247Y-127155476D01*
X148186247Y-127155476D02*
X148186247Y-127345952D01*
X129564819Y-127726904D02*
X128564819Y-127726904D01*
X128564819Y-127726904D02*
X128564819Y-127488809D01*
X128564819Y-127488809D02*
X128612438Y-127345952D01*
X128612438Y-127345952D02*
X128707676Y-127250714D01*
X128707676Y-127250714D02*
X128802914Y-127203095D01*
X128802914Y-127203095D02*
X128993390Y-127155476D01*
X128993390Y-127155476D02*
X129136247Y-127155476D01*
X129136247Y-127155476D02*
X129326723Y-127203095D01*
X129326723Y-127203095D02*
X129421961Y-127250714D01*
X129421961Y-127250714D02*
X129517200Y-127345952D01*
X129517200Y-127345952D02*
X129564819Y-127488809D01*
X129564819Y-127488809D02*
X129564819Y-127726904D01*
X148567200Y-99810713D02*
X148614819Y-99667856D01*
X148614819Y-99667856D02*
X148614819Y-99429761D01*
X148614819Y-99429761D02*
X148567200Y-99334523D01*
X148567200Y-99334523D02*
X148519580Y-99286904D01*
X148519580Y-99286904D02*
X148424342Y-99239285D01*
X148424342Y-99239285D02*
X148329104Y-99239285D01*
X148329104Y-99239285D02*
X148233866Y-99286904D01*
X148233866Y-99286904D02*
X148186247Y-99334523D01*
X148186247Y-99334523D02*
X148138628Y-99429761D01*
X148138628Y-99429761D02*
X148091009Y-99620237D01*
X148091009Y-99620237D02*
X148043390Y-99715475D01*
X148043390Y-99715475D02*
X147995771Y-99763094D01*
X147995771Y-99763094D02*
X147900533Y-99810713D01*
X147900533Y-99810713D02*
X147805295Y-99810713D01*
X147805295Y-99810713D02*
X147710057Y-99763094D01*
X147710057Y-99763094D02*
X147662438Y-99715475D01*
X147662438Y-99715475D02*
X147614819Y-99620237D01*
X147614819Y-99620237D02*
X147614819Y-99382142D01*
X147614819Y-99382142D02*
X147662438Y-99239285D01*
X128247200Y-99810713D02*
X128294819Y-99667856D01*
X128294819Y-99667856D02*
X128294819Y-99429761D01*
X128294819Y-99429761D02*
X128247200Y-99334523D01*
X128247200Y-99334523D02*
X128199580Y-99286904D01*
X128199580Y-99286904D02*
X128104342Y-99239285D01*
X128104342Y-99239285D02*
X128009104Y-99239285D01*
X128009104Y-99239285D02*
X127913866Y-99286904D01*
X127913866Y-99286904D02*
X127866247Y-99334523D01*
X127866247Y-99334523D02*
X127818628Y-99429761D01*
X127818628Y-99429761D02*
X127771009Y-99620237D01*
X127771009Y-99620237D02*
X127723390Y-99715475D01*
X127723390Y-99715475D02*
X127675771Y-99763094D01*
X127675771Y-99763094D02*
X127580533Y-99810713D01*
X127580533Y-99810713D02*
X127485295Y-99810713D01*
X127485295Y-99810713D02*
X127390057Y-99763094D01*
X127390057Y-99763094D02*
X127342438Y-99715475D01*
X127342438Y-99715475D02*
X127294819Y-99620237D01*
X127294819Y-99620237D02*
X127294819Y-99382142D01*
X127294819Y-99382142D02*
X127342438Y-99239285D01*
D11*
X51282419Y-120008333D02*
X50806228Y-119675000D01*
X51282419Y-119436905D02*
X50282419Y-119436905D01*
X50282419Y-119436905D02*
X50282419Y-119817857D01*
X50282419Y-119817857D02*
X50330038Y-119913095D01*
X50330038Y-119913095D02*
X50377657Y-119960714D01*
X50377657Y-119960714D02*
X50472895Y-120008333D01*
X50472895Y-120008333D02*
X50615752Y-120008333D01*
X50615752Y-120008333D02*
X50710990Y-119960714D01*
X50710990Y-119960714D02*
X50758609Y-119913095D01*
X50758609Y-119913095D02*
X50806228Y-119817857D01*
X50806228Y-119817857D02*
X50806228Y-119436905D01*
X51282419Y-120484524D02*
X51282419Y-120675000D01*
X51282419Y-120675000D02*
X51234800Y-120770238D01*
X51234800Y-120770238D02*
X51187180Y-120817857D01*
X51187180Y-120817857D02*
X51044323Y-120913095D01*
X51044323Y-120913095D02*
X50853847Y-120960714D01*
X50853847Y-120960714D02*
X50472895Y-120960714D01*
X50472895Y-120960714D02*
X50377657Y-120913095D01*
X50377657Y-120913095D02*
X50330038Y-120865476D01*
X50330038Y-120865476D02*
X50282419Y-120770238D01*
X50282419Y-120770238D02*
X50282419Y-120579762D01*
X50282419Y-120579762D02*
X50330038Y-120484524D01*
X50330038Y-120484524D02*
X50377657Y-120436905D01*
X50377657Y-120436905D02*
X50472895Y-120389286D01*
X50472895Y-120389286D02*
X50710990Y-120389286D01*
X50710990Y-120389286D02*
X50806228Y-120436905D01*
X50806228Y-120436905D02*
X50853847Y-120484524D01*
X50853847Y-120484524D02*
X50901466Y-120579762D01*
X50901466Y-120579762D02*
X50901466Y-120770238D01*
X50901466Y-120770238D02*
X50853847Y-120865476D01*
X50853847Y-120865476D02*
X50806228Y-120913095D01*
X50806228Y-120913095D02*
X50710990Y-120960714D01*
D10*
X41444666Y-49984819D02*
X41444666Y-50699104D01*
X41444666Y-50699104D02*
X41397047Y-50841961D01*
X41397047Y-50841961D02*
X41301809Y-50937200D01*
X41301809Y-50937200D02*
X41158952Y-50984819D01*
X41158952Y-50984819D02*
X41063714Y-50984819D01*
X42349428Y-50318152D02*
X42349428Y-50984819D01*
X42111333Y-49937200D02*
X41873238Y-50651485D01*
X41873238Y-50651485D02*
X42492285Y-50651485D01*
X41444666Y-116024819D02*
X41444666Y-116739104D01*
X41444666Y-116739104D02*
X41397047Y-116881961D01*
X41397047Y-116881961D02*
X41301809Y-116977200D01*
X41301809Y-116977200D02*
X41158952Y-117024819D01*
X41158952Y-117024819D02*
X41063714Y-117024819D01*
X41825619Y-116024819D02*
X42444666Y-116024819D01*
X42444666Y-116024819D02*
X42111333Y-116405771D01*
X42111333Y-116405771D02*
X42254190Y-116405771D01*
X42254190Y-116405771D02*
X42349428Y-116453390D01*
X42349428Y-116453390D02*
X42397047Y-116501009D01*
X42397047Y-116501009D02*
X42444666Y-116596247D01*
X42444666Y-116596247D02*
X42444666Y-116834342D01*
X42444666Y-116834342D02*
X42397047Y-116929580D01*
X42397047Y-116929580D02*
X42349428Y-116977200D01*
X42349428Y-116977200D02*
X42254190Y-117024819D01*
X42254190Y-117024819D02*
X41968476Y-117024819D01*
X41968476Y-117024819D02*
X41873238Y-116977200D01*
X41873238Y-116977200D02*
X41825619Y-116929580D01*
X41444666Y-75384819D02*
X41444666Y-76099104D01*
X41444666Y-76099104D02*
X41397047Y-76241961D01*
X41397047Y-76241961D02*
X41301809Y-76337200D01*
X41301809Y-76337200D02*
X41158952Y-76384819D01*
X41158952Y-76384819D02*
X41063714Y-76384819D01*
X42063714Y-75813390D02*
X41968476Y-75765771D01*
X41968476Y-75765771D02*
X41920857Y-75718152D01*
X41920857Y-75718152D02*
X41873238Y-75622914D01*
X41873238Y-75622914D02*
X41873238Y-75575295D01*
X41873238Y-75575295D02*
X41920857Y-75480057D01*
X41920857Y-75480057D02*
X41968476Y-75432438D01*
X41968476Y-75432438D02*
X42063714Y-75384819D01*
X42063714Y-75384819D02*
X42254190Y-75384819D01*
X42254190Y-75384819D02*
X42349428Y-75432438D01*
X42349428Y-75432438D02*
X42397047Y-75480057D01*
X42397047Y-75480057D02*
X42444666Y-75575295D01*
X42444666Y-75575295D02*
X42444666Y-75622914D01*
X42444666Y-75622914D02*
X42397047Y-75718152D01*
X42397047Y-75718152D02*
X42349428Y-75765771D01*
X42349428Y-75765771D02*
X42254190Y-75813390D01*
X42254190Y-75813390D02*
X42063714Y-75813390D01*
X42063714Y-75813390D02*
X41968476Y-75861009D01*
X41968476Y-75861009D02*
X41920857Y-75908628D01*
X41920857Y-75908628D02*
X41873238Y-76003866D01*
X41873238Y-76003866D02*
X41873238Y-76194342D01*
X41873238Y-76194342D02*
X41920857Y-76289580D01*
X41920857Y-76289580D02*
X41968476Y-76337200D01*
X41968476Y-76337200D02*
X42063714Y-76384819D01*
X42063714Y-76384819D02*
X42254190Y-76384819D01*
X42254190Y-76384819D02*
X42349428Y-76337200D01*
X42349428Y-76337200D02*
X42397047Y-76289580D01*
X42397047Y-76289580D02*
X42444666Y-76194342D01*
X42444666Y-76194342D02*
X42444666Y-76003866D01*
X42444666Y-76003866D02*
X42397047Y-75908628D01*
X42397047Y-75908628D02*
X42349428Y-75861009D01*
X42349428Y-75861009D02*
X42254190Y-75813390D01*
D12*
X192381000Y-56854401D02*
G75*
G03*
X192381000Y-56854401I-381000J0D01*
G01*
D13*
X153745276Y-120477500D02*
X154254724Y-120477500D01*
X153745276Y-121522500D02*
X154254724Y-121522500D01*
X122254724Y-66522500D02*
X121745276Y-66522500D01*
X122254724Y-65477500D02*
X121745276Y-65477500D01*
M02*
