G04 #@! TF.GenerationSoftware,KiCad,Pcbnew,7.0.7*
G04 #@! TF.CreationDate,2023-10-24T13:27:02-04:00*
G04 #@! TF.ProjectId,SchineLab_CoilFET_Board,53636869-6e65-44c6-9162-5f436f696c46,rev?*
G04 #@! TF.SameCoordinates,Original*
G04 #@! TF.FileFunction,Copper,L2,Bot*
G04 #@! TF.FilePolarity,Positive*
%FSLAX46Y46*%
G04 Gerber Fmt 4.6, Leading zero omitted, Abs format (unit mm)*
G04 Created by KiCad (PCBNEW 7.0.7) date 2023-10-24 13:27:02*
%MOMM*%
%LPD*%
G01*
G04 APERTURE LIST*
G04 Aperture macros list*
%AMRoundRect*
0 Rectangle with rounded corners*
0 $1 Rounding radius*
0 $2 $3 $4 $5 $6 $7 $8 $9 X,Y pos of 4 corners*
0 Add a 4 corners polygon primitive as box body*
4,1,4,$2,$3,$4,$5,$6,$7,$8,$9,$2,$3,0*
0 Add four circle primitives for the rounded corners*
1,1,$1+$1,$2,$3*
1,1,$1+$1,$4,$5*
1,1,$1+$1,$6,$7*
1,1,$1+$1,$8,$9*
0 Add four rect primitives between the rounded corners*
20,1,$1+$1,$2,$3,$4,$5,0*
20,1,$1+$1,$4,$5,$6,$7,0*
20,1,$1+$1,$6,$7,$8,$9,0*
20,1,$1+$1,$8,$9,$2,$3,0*%
G04 Aperture macros list end*
G04 #@! TA.AperFunction,ComponentPad*
%ADD10O,4.200000X2.500000*%
G04 #@! TD*
G04 #@! TA.AperFunction,ComponentPad*
%ADD11C,2.000000*%
G04 #@! TD*
G04 #@! TA.AperFunction,ComponentPad*
%ADD12R,10.000000X10.000000*%
G04 #@! TD*
G04 #@! TA.AperFunction,ComponentPad*
%ADD13O,4.000000X2.800000*%
G04 #@! TD*
G04 #@! TA.AperFunction,ComponentPad*
%ADD14O,3.600000X2.300000*%
G04 #@! TD*
G04 #@! TA.AperFunction,ComponentPad*
%ADD15R,1.700000X1.700000*%
G04 #@! TD*
G04 #@! TA.AperFunction,ComponentPad*
%ADD16O,1.700000X1.700000*%
G04 #@! TD*
G04 #@! TA.AperFunction,SMDPad,CuDef*
%ADD17RoundRect,0.225000X-0.225000X-0.250000X0.225000X-0.250000X0.225000X0.250000X-0.225000X0.250000X0*%
G04 #@! TD*
G04 #@! TA.AperFunction,ViaPad*
%ADD18C,2.000000*%
G04 #@! TD*
G04 #@! TA.AperFunction,Conductor*
%ADD19C,0.250000*%
G04 #@! TD*
G04 #@! TA.AperFunction,Conductor*
%ADD20C,2.000000*%
G04 #@! TD*
G04 #@! TA.AperFunction,Conductor*
%ADD21C,1.000000*%
G04 #@! TD*
G04 #@! TA.AperFunction,Conductor*
%ADD22C,1.200000*%
G04 #@! TD*
G04 APERTURE END LIST*
D10*
X192000000Y-61500000D03*
X204500000Y-61500000D03*
X192000000Y-65310000D03*
X204500000Y-65310000D03*
X192000000Y-76500000D03*
X204500000Y-76500000D03*
X192000000Y-80310000D03*
X204500000Y-80310000D03*
X192000000Y-91500001D03*
X204500000Y-91500001D03*
X192000000Y-95310001D03*
X204500000Y-95310001D03*
X192000000Y-106500001D03*
X204500000Y-106500001D03*
X192000000Y-110310001D03*
X204500000Y-110310001D03*
X192000000Y-121500002D03*
X204500000Y-121500002D03*
X192000000Y-125310002D03*
X204500000Y-125310002D03*
D11*
X84700000Y-94800000D03*
X92200000Y-94800000D03*
X91600000Y-60000000D03*
X84100000Y-60000000D03*
D12*
X131700000Y-66012000D03*
X144300000Y-66012000D03*
X131700000Y-80998000D03*
X144300000Y-80998000D03*
X144300000Y-120988000D03*
X131700000Y-120988000D03*
X144300000Y-106002000D03*
X131700000Y-106002000D03*
D13*
X51325000Y-111285000D03*
D14*
X51325000Y-116365000D03*
X51325000Y-123985000D03*
D13*
X51325000Y-129065000D03*
D15*
X41778000Y-52860000D03*
D16*
X41778000Y-55400000D03*
D15*
X41778000Y-118900000D03*
D16*
X41778000Y-121440000D03*
D17*
X153225000Y-60000000D03*
X154775000Y-60000000D03*
X121225000Y-116000000D03*
X122775000Y-116000000D03*
D15*
X41778000Y-78260000D03*
D16*
X41778000Y-80800000D03*
D18*
X195800000Y-125200000D03*
X200400000Y-125200000D03*
X200400000Y-121600000D03*
X195800000Y-121600000D03*
X47000000Y-129200000D03*
X62000000Y-129400000D03*
X59000000Y-129400000D03*
X56200000Y-129400000D03*
X119400000Y-116000000D03*
X41800000Y-49000000D03*
X156800000Y-60000000D03*
X84800000Y-92200000D03*
X41800000Y-74400000D03*
X84000000Y-56800000D03*
X124555000Y-66005000D03*
X151505000Y-121015000D03*
X41778000Y-59200000D03*
X41800000Y-84400000D03*
D19*
X84000000Y-56800000D02*
X84100000Y-56900000D01*
D20*
X84100000Y-56900000D02*
X84100000Y-60000000D01*
D19*
X84800000Y-92200000D02*
X84700000Y-92300000D01*
D20*
X84700000Y-92300000D02*
X84700000Y-94800000D01*
D21*
X121225000Y-116000000D02*
X119400000Y-116000000D01*
X154775000Y-60000000D02*
X156800000Y-60000000D01*
D19*
X121210000Y-115910000D02*
X121225000Y-115925000D01*
X156170000Y-59925000D02*
X156195000Y-59900000D01*
D21*
X41778000Y-52860000D02*
X41778000Y-49022000D01*
D19*
X41778000Y-49022000D02*
X41800000Y-49000000D01*
D21*
X41778000Y-78260000D02*
X41778000Y-74422000D01*
D19*
X41778000Y-74422000D02*
X41800000Y-74400000D01*
X140400000Y-62112000D02*
X144300000Y-66012000D01*
X124562000Y-66012000D02*
X124555000Y-66005000D01*
D21*
X131700000Y-66012000D02*
X124562000Y-66012000D01*
X144300000Y-120988000D02*
X151478000Y-120988000D01*
D22*
X48790000Y-118900000D02*
X51325000Y-116365000D01*
X41778000Y-118900000D02*
X48790000Y-118900000D01*
X41778000Y-121440000D02*
X48780000Y-121440000D01*
X48780000Y-121440000D02*
X51325000Y-123985000D01*
D21*
X41778000Y-59200000D02*
X41778000Y-55400000D01*
D19*
X41778000Y-84378000D02*
X41800000Y-84400000D01*
D21*
X41778000Y-80800000D02*
X41778000Y-84378000D01*
G04 #@! TA.AperFunction,Conductor*
G36*
X175602933Y-50997592D02*
G01*
X175609550Y-50997974D01*
X175805590Y-51019863D01*
X175831476Y-51025606D01*
X176008887Y-51085488D01*
X176032965Y-51096609D01*
X176193579Y-51192852D01*
X176214744Y-51208842D01*
X176351208Y-51337040D01*
X176368488Y-51357166D01*
X176480239Y-51519711D01*
X176483705Y-51525381D01*
X185341860Y-67929371D01*
X187000000Y-71000000D01*
X213396951Y-71000000D01*
X213403032Y-71000299D01*
X213464066Y-71006310D01*
X213582941Y-71018018D01*
X213606769Y-71022757D01*
X213771001Y-71072576D01*
X213793453Y-71081877D01*
X213944798Y-71162772D01*
X213965008Y-71176276D01*
X213981020Y-71189416D01*
X214097666Y-71285145D01*
X214114854Y-71302333D01*
X214223722Y-71434989D01*
X214237227Y-71455201D01*
X214318121Y-71606543D01*
X214327424Y-71629001D01*
X214377240Y-71793224D01*
X214381982Y-71817065D01*
X214399701Y-71996967D01*
X214400000Y-72003048D01*
X214400000Y-84196951D01*
X214399701Y-84203032D01*
X214381982Y-84382934D01*
X214377240Y-84406775D01*
X214327424Y-84570998D01*
X214318121Y-84593456D01*
X214237227Y-84744798D01*
X214223722Y-84765010D01*
X214114854Y-84897666D01*
X214097666Y-84914854D01*
X213965010Y-85023722D01*
X213944798Y-85037227D01*
X213793456Y-85118121D01*
X213770998Y-85127424D01*
X213606775Y-85177240D01*
X213582934Y-85181982D01*
X213453558Y-85194724D01*
X213435344Y-85195173D01*
X213434009Y-85195107D01*
X213409302Y-85194500D01*
X176223910Y-85194500D01*
X176176606Y-85185122D01*
X176157507Y-85177240D01*
X151358271Y-74942634D01*
X151335305Y-74933807D01*
X151306426Y-74923510D01*
X151283065Y-74915821D01*
X151215496Y-74895396D01*
X151075266Y-74853007D01*
X151027540Y-74841093D01*
X151027530Y-74841091D01*
X151027526Y-74841090D01*
X150955515Y-74826813D01*
X150906827Y-74819614D01*
X150906822Y-74819613D01*
X150906812Y-74819612D01*
X150828715Y-74811945D01*
X150800000Y-74800000D01*
X150701588Y-74799466D01*
X150690784Y-74798406D01*
X150678526Y-74797505D01*
X150666269Y-74796604D01*
X150635639Y-74795103D01*
X150611031Y-74794500D01*
X150611030Y-74794500D01*
X149785252Y-74794500D01*
X77997613Y-74405406D01*
X77991565Y-74405077D01*
X77812364Y-74386508D01*
X77788628Y-74381669D01*
X77625198Y-74331307D01*
X77602854Y-74321946D01*
X77452326Y-74240764D01*
X77432230Y-74227237D01*
X77300364Y-74118342D01*
X77283281Y-74101166D01*
X77175100Y-73968708D01*
X77161683Y-73948539D01*
X77081322Y-73797580D01*
X77072082Y-73775187D01*
X77022604Y-73611481D01*
X77017894Y-73587718D01*
X77000297Y-73408427D01*
X77000000Y-73402368D01*
X77000000Y-66005001D01*
X122549390Y-66005001D01*
X122569804Y-66290433D01*
X122630628Y-66570037D01*
X122730635Y-66838166D01*
X122867770Y-67089309D01*
X122867775Y-67089317D01*
X123039254Y-67318387D01*
X123039270Y-67318405D01*
X123241594Y-67520729D01*
X123241612Y-67520745D01*
X123470682Y-67692224D01*
X123470690Y-67692229D01*
X123721833Y-67829364D01*
X123721832Y-67829364D01*
X123721836Y-67829365D01*
X123721839Y-67829367D01*
X123989954Y-67929369D01*
X123989960Y-67929370D01*
X123989962Y-67929371D01*
X124269566Y-67990195D01*
X124269568Y-67990195D01*
X124269572Y-67990196D01*
X124523220Y-68008337D01*
X124554999Y-68010610D01*
X124555000Y-68010610D01*
X124555001Y-68010610D01*
X124583595Y-68008564D01*
X124840428Y-67990196D01*
X125120046Y-67929369D01*
X125388161Y-67829367D01*
X125516075Y-67759520D01*
X125584345Y-67744669D01*
X125649810Y-67769085D01*
X125691681Y-67825019D01*
X125699500Y-67868353D01*
X125699501Y-71070032D01*
X125699501Y-71070033D01*
X125710113Y-71189415D01*
X125766089Y-71385045D01*
X125766090Y-71385048D01*
X125766091Y-71385049D01*
X125860302Y-71565407D01*
X125860304Y-71565409D01*
X125988890Y-71723109D01*
X126074880Y-71793224D01*
X126146593Y-71851698D01*
X126326951Y-71945909D01*
X126522582Y-72001886D01*
X126641963Y-72012500D01*
X126641964Y-72012499D01*
X126641965Y-72012500D01*
X126641966Y-72012500D01*
X131072000Y-72012499D01*
X136758036Y-72012499D01*
X136877418Y-72001886D01*
X137073049Y-71945909D01*
X137253407Y-71851698D01*
X137411109Y-71723109D01*
X137539698Y-71565407D01*
X137633909Y-71385049D01*
X137689886Y-71189418D01*
X137700500Y-71070037D01*
X137700499Y-60953964D01*
X137689886Y-60834582D01*
X137633909Y-60638951D01*
X137539698Y-60458593D01*
X137467145Y-60369614D01*
X137411109Y-60300890D01*
X137253409Y-60172304D01*
X137253410Y-60172304D01*
X137253407Y-60172302D01*
X137161577Y-60124334D01*
X153274500Y-60124334D01*
X153315428Y-60369614D01*
X153327882Y-60405888D01*
X153334218Y-60436418D01*
X153334695Y-60442480D01*
X153388596Y-60656395D01*
X153479826Y-60857243D01*
X153605449Y-61038568D01*
X153761432Y-61194550D01*
X153761431Y-61194550D01*
X153942756Y-61320173D01*
X153942757Y-61320173D01*
X153942761Y-61320176D01*
X154076875Y-61381093D01*
X154143604Y-61411403D01*
X154143605Y-61411403D01*
X154143607Y-61411404D01*
X154357515Y-61465304D01*
X154479729Y-61474922D01*
X154500426Y-61478332D01*
X154527179Y-61485108D01*
X154527184Y-61485108D01*
X154527186Y-61485109D01*
X154660376Y-61496145D01*
X154712933Y-61500500D01*
X155424977Y-61500500D01*
X155492016Y-61520185D01*
X155499287Y-61525233D01*
X155715682Y-61687224D01*
X155715690Y-61687229D01*
X155966833Y-61824364D01*
X155966832Y-61824364D01*
X155966836Y-61824365D01*
X155966839Y-61824367D01*
X156234954Y-61924369D01*
X156234960Y-61924370D01*
X156234962Y-61924371D01*
X156514566Y-61985195D01*
X156514568Y-61985195D01*
X156514572Y-61985196D01*
X156768220Y-62003337D01*
X156799999Y-62005610D01*
X156800000Y-62005610D01*
X156800001Y-62005610D01*
X156828595Y-62003564D01*
X157085428Y-61985196D01*
X157365046Y-61924369D01*
X157633161Y-61824367D01*
X157884315Y-61687226D01*
X158113395Y-61515739D01*
X158315739Y-61313395D01*
X158487226Y-61084315D01*
X158624367Y-60833161D01*
X158724369Y-60565046D01*
X158747527Y-60458590D01*
X158785195Y-60285433D01*
X158785195Y-60285432D01*
X158785196Y-60285428D01*
X158805610Y-60000000D01*
X158785196Y-59714572D01*
X158755757Y-59579244D01*
X158724371Y-59434962D01*
X158724370Y-59434960D01*
X158724369Y-59434954D01*
X158624367Y-59166839D01*
X158611219Y-59142761D01*
X158487229Y-58915690D01*
X158487224Y-58915682D01*
X158315745Y-58686612D01*
X158315729Y-58686594D01*
X158113405Y-58484270D01*
X158113387Y-58484254D01*
X157884317Y-58312775D01*
X157884309Y-58312770D01*
X157633166Y-58175635D01*
X157633167Y-58175635D01*
X157525915Y-58135632D01*
X157365046Y-58075631D01*
X157365043Y-58075630D01*
X157365037Y-58075628D01*
X157085433Y-58014804D01*
X156800001Y-57994390D01*
X156799999Y-57994390D01*
X156514566Y-58014804D01*
X156234962Y-58075628D01*
X155966833Y-58175635D01*
X155715690Y-58312770D01*
X155715682Y-58312775D01*
X155499287Y-58474767D01*
X155433823Y-58499184D01*
X155424977Y-58499500D01*
X154712933Y-58499500D01*
X154666890Y-58503315D01*
X154527185Y-58514891D01*
X154527176Y-58514892D01*
X154504534Y-58520625D01*
X154500417Y-58521668D01*
X154479710Y-58525080D01*
X154357514Y-58534696D01*
X154143604Y-58588596D01*
X153942756Y-58679826D01*
X153761431Y-58805449D01*
X153605449Y-58961431D01*
X153479826Y-59142756D01*
X153388596Y-59343604D01*
X153334696Y-59557515D01*
X153334219Y-59563577D01*
X153327883Y-59594104D01*
X153315431Y-59630377D01*
X153315427Y-59630391D01*
X153274500Y-59875665D01*
X153274500Y-60124334D01*
X137161577Y-60124334D01*
X137073049Y-60078091D01*
X137073048Y-60078090D01*
X137073045Y-60078089D01*
X136953074Y-60043762D01*
X136877418Y-60022114D01*
X136877415Y-60022113D01*
X136877413Y-60022113D01*
X136786983Y-60014073D01*
X136758037Y-60011500D01*
X136758035Y-60011500D01*
X136758034Y-60011500D01*
X132420169Y-60011500D01*
X126641964Y-60011501D01*
X126612727Y-60014100D01*
X126522584Y-60022113D01*
X126326954Y-60078089D01*
X126238423Y-60124334D01*
X126146593Y-60172302D01*
X126146591Y-60172303D01*
X126146590Y-60172304D01*
X125988890Y-60300890D01*
X125860304Y-60458590D01*
X125766089Y-60638954D01*
X125751672Y-60689342D01*
X125710928Y-60831739D01*
X125710114Y-60834583D01*
X125710113Y-60834586D01*
X125699500Y-60953965D01*
X125699500Y-60953966D01*
X125699499Y-64141646D01*
X125679814Y-64208685D01*
X125627010Y-64254440D01*
X125557852Y-64264384D01*
X125516072Y-64250478D01*
X125388166Y-64180635D01*
X125388167Y-64180635D01*
X125280914Y-64140632D01*
X125120046Y-64080631D01*
X125120043Y-64080630D01*
X125120037Y-64080628D01*
X124840433Y-64019804D01*
X124555001Y-63999390D01*
X124554999Y-63999390D01*
X124269566Y-64019804D01*
X123989962Y-64080628D01*
X123721833Y-64180635D01*
X123470690Y-64317770D01*
X123470682Y-64317775D01*
X123241612Y-64489254D01*
X123241594Y-64489270D01*
X123039270Y-64691594D01*
X123039254Y-64691612D01*
X122867775Y-64920682D01*
X122867770Y-64920690D01*
X122730635Y-65171833D01*
X122630628Y-65439962D01*
X122569804Y-65719566D01*
X122549390Y-66004998D01*
X122549390Y-66005001D01*
X77000000Y-66005001D01*
X77000000Y-56800001D01*
X81994390Y-56800001D01*
X82014804Y-57085433D01*
X82075629Y-57365039D01*
X82075631Y-57365046D01*
X82091682Y-57408080D01*
X82099500Y-57451413D01*
X82099500Y-59926338D01*
X82099342Y-59930762D01*
X82094390Y-59999998D01*
X82094390Y-60000002D01*
X82099062Y-60065336D01*
X82099063Y-60065343D01*
X82114804Y-60285433D01*
X82175628Y-60565037D01*
X82175630Y-60565043D01*
X82175631Y-60565046D01*
X82209702Y-60656393D01*
X82275635Y-60833166D01*
X82412770Y-61084309D01*
X82412775Y-61084317D01*
X82584254Y-61313387D01*
X82584270Y-61313405D01*
X82786594Y-61515729D01*
X82786612Y-61515745D01*
X83015682Y-61687224D01*
X83015690Y-61687229D01*
X83266833Y-61824364D01*
X83266832Y-61824364D01*
X83266836Y-61824365D01*
X83266839Y-61824367D01*
X83534954Y-61924369D01*
X83534960Y-61924370D01*
X83534962Y-61924371D01*
X83814566Y-61985195D01*
X83814568Y-61985195D01*
X83814572Y-61985196D01*
X84068220Y-62003337D01*
X84099999Y-62005610D01*
X84100000Y-62005610D01*
X84100001Y-62005610D01*
X84128595Y-62003564D01*
X84385428Y-61985196D01*
X84665046Y-61924369D01*
X84933161Y-61824367D01*
X85184315Y-61687226D01*
X85413395Y-61515739D01*
X85615739Y-61313395D01*
X85787226Y-61084315D01*
X85924367Y-60833161D01*
X86024369Y-60565046D01*
X86047527Y-60458590D01*
X86085195Y-60285433D01*
X86085195Y-60285432D01*
X86085196Y-60285428D01*
X86100500Y-60071448D01*
X86100500Y-60071447D01*
X86105610Y-60000000D01*
X86100657Y-59930760D01*
X86100500Y-59926338D01*
X86100500Y-56828552D01*
X86098458Y-56799998D01*
X86085196Y-56614572D01*
X86063442Y-56514572D01*
X86024371Y-56334962D01*
X86024370Y-56334960D01*
X86024369Y-56334954D01*
X85924367Y-56066839D01*
X85869759Y-55966833D01*
X85787229Y-55815690D01*
X85787224Y-55815682D01*
X85615745Y-55586612D01*
X85615729Y-55586594D01*
X85395954Y-55366820D01*
X85313401Y-55284267D01*
X85313400Y-55284266D01*
X85313395Y-55284261D01*
X85313383Y-55284252D01*
X85084317Y-55112775D01*
X85084309Y-55112770D01*
X84833166Y-54975635D01*
X84833167Y-54975635D01*
X84725914Y-54935632D01*
X84565046Y-54875631D01*
X84565043Y-54875630D01*
X84565037Y-54875628D01*
X84285433Y-54814804D01*
X84000001Y-54794390D01*
X83999999Y-54794390D01*
X83714566Y-54814804D01*
X83434962Y-54875628D01*
X83166833Y-54975635D01*
X82915690Y-55112770D01*
X82915682Y-55112775D01*
X82686612Y-55284254D01*
X82686594Y-55284270D01*
X82484270Y-55486594D01*
X82484254Y-55486612D01*
X82312775Y-55715682D01*
X82312770Y-55715690D01*
X82175635Y-55966833D01*
X82075628Y-56234962D01*
X82014804Y-56514566D01*
X81994390Y-56799998D01*
X81994390Y-56800001D01*
X77000000Y-56800001D01*
X77000000Y-51607096D01*
X77000300Y-51601000D01*
X77007767Y-51525381D01*
X77018110Y-51420629D01*
X77022874Y-51396748D01*
X77072944Y-51232137D01*
X77082291Y-51209638D01*
X77163586Y-51058006D01*
X77177155Y-51037764D01*
X77286536Y-50904960D01*
X77303804Y-50887762D01*
X77356955Y-50844342D01*
X77437047Y-50778916D01*
X77457336Y-50765433D01*
X77609300Y-50684748D01*
X77631832Y-50675494D01*
X77796653Y-50626085D01*
X77820551Y-50621419D01*
X78001011Y-50604335D01*
X78007079Y-50604061D01*
X175602933Y-50997592D01*
G37*
G04 #@! TD.AperFunction*
G04 #@! TA.AperFunction,Conductor*
G36*
X150604782Y-75800297D02*
G01*
X150675860Y-75807274D01*
X150784104Y-75817900D01*
X150807865Y-75822611D01*
X150980349Y-75874750D01*
X150986057Y-75876785D01*
X158731263Y-79073219D01*
X175816743Y-86124371D01*
X175816750Y-86124373D01*
X176000000Y-86200000D01*
X213396951Y-86200000D01*
X213403032Y-86200299D01*
X213464066Y-86206310D01*
X213582941Y-86218018D01*
X213606769Y-86222757D01*
X213771001Y-86272576D01*
X213793453Y-86281877D01*
X213944798Y-86362772D01*
X213965010Y-86376277D01*
X214097666Y-86485145D01*
X214114854Y-86502333D01*
X214223722Y-86634989D01*
X214237227Y-86655201D01*
X214318121Y-86806543D01*
X214327424Y-86829001D01*
X214377240Y-86993224D01*
X214381982Y-87017065D01*
X214399700Y-87196967D01*
X214399999Y-87203048D01*
X214399999Y-99596951D01*
X214399700Y-99603032D01*
X214381982Y-99782934D01*
X214377240Y-99806775D01*
X214327424Y-99970998D01*
X214318121Y-99993456D01*
X214237227Y-100144798D01*
X214223722Y-100165010D01*
X214114854Y-100297666D01*
X214097666Y-100314854D01*
X213965010Y-100423722D01*
X213944798Y-100437227D01*
X213793456Y-100518121D01*
X213770998Y-100527424D01*
X213606775Y-100577240D01*
X213582934Y-100581982D01*
X213403032Y-100599701D01*
X213396951Y-100600000D01*
X186800000Y-100600000D01*
X186662389Y-100640294D01*
X186662377Y-100640297D01*
X186662378Y-100640297D01*
X178348125Y-103074857D01*
X168699999Y-105899999D01*
X150739723Y-111159085D01*
X150735463Y-111160170D01*
X150607194Y-111187998D01*
X150589728Y-111190503D01*
X150458802Y-111199843D01*
X150454389Y-111200000D01*
X126203049Y-111200000D01*
X126196968Y-111199701D01*
X126017065Y-111181982D01*
X125993224Y-111177240D01*
X125829001Y-111127424D01*
X125806543Y-111118121D01*
X125655201Y-111037227D01*
X125634989Y-111023722D01*
X125502333Y-110914854D01*
X125485145Y-110897666D01*
X125376277Y-110765010D01*
X125362772Y-110744798D01*
X125281878Y-110593456D01*
X125272575Y-110570998D01*
X125222757Y-110406769D01*
X125218018Y-110382941D01*
X125200297Y-110203019D01*
X125200000Y-110196971D01*
X125200000Y-76803027D01*
X125200297Y-76796981D01*
X125218018Y-76617056D01*
X125222757Y-76593232D01*
X125272577Y-76428994D01*
X125281875Y-76406549D01*
X125362775Y-76255195D01*
X125376272Y-76234995D01*
X125485149Y-76102328D01*
X125502328Y-76085149D01*
X125634995Y-75976272D01*
X125655195Y-75962775D01*
X125806549Y-75881875D01*
X125828994Y-75872577D01*
X125993232Y-75822757D01*
X126017056Y-75818018D01*
X126131501Y-75806746D01*
X126196969Y-75800299D01*
X126203049Y-75800000D01*
X150598721Y-75800000D01*
X150604782Y-75800297D01*
G37*
G04 #@! TD.AperFunction*
G04 #@! TA.AperFunction,Conductor*
G36*
X213403032Y-30400299D02*
G01*
X213464067Y-30406310D01*
X213582941Y-30418018D01*
X213606769Y-30422757D01*
X213771001Y-30472576D01*
X213793453Y-30481877D01*
X213944798Y-30562772D01*
X213965010Y-30576277D01*
X214097666Y-30685145D01*
X214114854Y-30702333D01*
X214223722Y-30834989D01*
X214237227Y-30855201D01*
X214318121Y-31006543D01*
X214327424Y-31029001D01*
X214377240Y-31193224D01*
X214381982Y-31217065D01*
X214399701Y-31396967D01*
X214400000Y-31403048D01*
X214400000Y-68996951D01*
X214399701Y-69003032D01*
X214381982Y-69182934D01*
X214377240Y-69206775D01*
X214327424Y-69370998D01*
X214318121Y-69393456D01*
X214237227Y-69544798D01*
X214223722Y-69565010D01*
X214114854Y-69697666D01*
X214097666Y-69714854D01*
X213965010Y-69823722D01*
X213944798Y-69837227D01*
X213793456Y-69918121D01*
X213770998Y-69927424D01*
X213606775Y-69977240D01*
X213582934Y-69981982D01*
X213453558Y-69994724D01*
X213435344Y-69995173D01*
X213434009Y-69995107D01*
X213409302Y-69994500D01*
X188154567Y-69994500D01*
X188147858Y-69994136D01*
X188000182Y-69978073D01*
X187973993Y-69972308D01*
X187794611Y-69911860D01*
X187770273Y-69900598D01*
X187608088Y-69803000D01*
X187586741Y-69786769D01*
X187449330Y-69656582D01*
X187431971Y-69636142D01*
X187320081Y-69471074D01*
X187316618Y-69465317D01*
X177327173Y-50617309D01*
X177281804Y-50531706D01*
X177000000Y-50000000D01*
X176398231Y-50000000D01*
X176398230Y-50000000D01*
X175736362Y-50000000D01*
X175729484Y-49999617D01*
X175707753Y-49997191D01*
X175680935Y-49994921D01*
X175664179Y-49993953D01*
X175647425Y-49992986D01*
X175620471Y-49992155D01*
X77998776Y-49598519D01*
X77974066Y-49599027D01*
X77943281Y-49600417D01*
X77918573Y-49602144D01*
X77918574Y-49602144D01*
X77701146Y-49622727D01*
X77701141Y-49622727D01*
X77701138Y-49622728D01*
X77690689Y-49624239D01*
X77652159Y-49629811D01*
X77608672Y-49638301D01*
X77579680Y-49643962D01*
X77579681Y-49643962D01*
X77556816Y-49649606D01*
X77531630Y-49655824D01*
X77531623Y-49655826D01*
X77531622Y-49655826D01*
X77319398Y-49719446D01*
X77272726Y-49735979D01*
X77272727Y-49735979D01*
X77246097Y-49746916D01*
X77204414Y-49764036D01*
X77176406Y-49777183D01*
X77159632Y-49785058D01*
X77159628Y-49785060D01*
X77159624Y-49785062D01*
X76963950Y-49888955D01*
X76921427Y-49914290D01*
X76900152Y-49928427D01*
X76859916Y-49955166D01*
X76831990Y-49975774D01*
X76766360Y-49999742D01*
X76758362Y-50000000D01*
X65600003Y-50000000D01*
X65600000Y-50000000D01*
X64600000Y-50000000D01*
X64600000Y-51000000D01*
X64600000Y-51000003D01*
X64600000Y-112996951D01*
X64599701Y-113003032D01*
X64581982Y-113182934D01*
X64577240Y-113206775D01*
X64527424Y-113370998D01*
X64518121Y-113393456D01*
X64437227Y-113544798D01*
X64423722Y-113565010D01*
X64314854Y-113697666D01*
X64297666Y-113714854D01*
X64165010Y-113823722D01*
X64144798Y-113837227D01*
X63993456Y-113918121D01*
X63970998Y-113927424D01*
X63806775Y-113977240D01*
X63782934Y-113981982D01*
X63603032Y-113999701D01*
X63596951Y-114000000D01*
X45603049Y-114000000D01*
X45596968Y-113999701D01*
X45417065Y-113981982D01*
X45393224Y-113977240D01*
X45229001Y-113927424D01*
X45206543Y-113918121D01*
X45055201Y-113837227D01*
X45034989Y-113823722D01*
X44902333Y-113714854D01*
X44885145Y-113697666D01*
X44776277Y-113565010D01*
X44762772Y-113544798D01*
X44681878Y-113393456D01*
X44672575Y-113370998D01*
X44622757Y-113206769D01*
X44618018Y-113182941D01*
X44600299Y-113003032D01*
X44600000Y-112996951D01*
X44600000Y-31403048D01*
X44600299Y-31396967D01*
X44604706Y-31352213D01*
X44618018Y-31217056D01*
X44622757Y-31193232D01*
X44672577Y-31028994D01*
X44681875Y-31006549D01*
X44762775Y-30855195D01*
X44776272Y-30834995D01*
X44885149Y-30702328D01*
X44902328Y-30685149D01*
X45034995Y-30576272D01*
X45055195Y-30562775D01*
X45206549Y-30481875D01*
X45228994Y-30472577D01*
X45393232Y-30422757D01*
X45417056Y-30418018D01*
X45531501Y-30406746D01*
X45596969Y-30400299D01*
X45603049Y-30400000D01*
X213396951Y-30400000D01*
X213403032Y-30400299D01*
G37*
G04 #@! TD.AperFunction*
G04 #@! TA.AperFunction,Conductor*
G36*
X213453555Y-116805274D02*
G01*
X213582943Y-116818018D01*
X213606767Y-116822757D01*
X213771001Y-116872576D01*
X213793453Y-116881877D01*
X213944798Y-116962772D01*
X213965010Y-116976277D01*
X214097666Y-117085145D01*
X214114854Y-117102333D01*
X214223722Y-117234989D01*
X214237227Y-117255201D01*
X214318121Y-117406543D01*
X214327424Y-117429001D01*
X214377240Y-117593224D01*
X214381982Y-117617065D01*
X214399701Y-117796967D01*
X214400000Y-117803048D01*
X214400000Y-155596951D01*
X214399701Y-155603032D01*
X214381982Y-155782934D01*
X214377240Y-155806775D01*
X214327424Y-155970998D01*
X214318121Y-155993456D01*
X214237227Y-156144798D01*
X214223722Y-156165010D01*
X214114854Y-156297666D01*
X214097666Y-156314854D01*
X213965010Y-156423722D01*
X213944798Y-156437227D01*
X213793456Y-156518121D01*
X213770998Y-156527424D01*
X213606775Y-156577240D01*
X213582934Y-156581982D01*
X213403032Y-156599701D01*
X213396951Y-156600000D01*
X45603049Y-156600000D01*
X45596968Y-156599701D01*
X45417065Y-156581982D01*
X45393224Y-156577240D01*
X45229001Y-156527424D01*
X45206543Y-156518121D01*
X45055201Y-156437227D01*
X45034989Y-156423722D01*
X44902333Y-156314854D01*
X44885145Y-156297666D01*
X44776277Y-156165010D01*
X44762772Y-156144798D01*
X44681878Y-155993456D01*
X44672575Y-155970998D01*
X44622757Y-155806769D01*
X44618018Y-155782941D01*
X44600299Y-155603032D01*
X44600000Y-155596951D01*
X44600000Y-127403048D01*
X44600299Y-127396967D01*
X44604706Y-127352213D01*
X44618018Y-127217056D01*
X44622757Y-127193232D01*
X44672577Y-127028994D01*
X44681875Y-127006549D01*
X44762775Y-126855195D01*
X44776272Y-126834995D01*
X44885149Y-126702328D01*
X44902328Y-126685149D01*
X45034995Y-126576272D01*
X45055195Y-126562775D01*
X45206549Y-126481875D01*
X45228994Y-126472577D01*
X45393232Y-126422757D01*
X45417056Y-126418018D01*
X45531501Y-126406746D01*
X45596969Y-126400299D01*
X45603049Y-126400000D01*
X63580920Y-126400000D01*
X63587062Y-126400305D01*
X63664267Y-126407986D01*
X63768766Y-126418383D01*
X63792827Y-126423218D01*
X63958550Y-126474029D01*
X63981198Y-126483515D01*
X64133663Y-126565985D01*
X64153988Y-126579741D01*
X64287217Y-126690636D01*
X64304433Y-126708127D01*
X64385276Y-126808448D01*
X64413199Y-126843098D01*
X64426636Y-126863647D01*
X64506673Y-127017397D01*
X64515799Y-127040192D01*
X64563972Y-127206698D01*
X64568427Y-127230843D01*
X64583619Y-127412805D01*
X64583826Y-127418952D01*
X64416124Y-137984118D01*
X64416124Y-137984134D01*
X64400000Y-139000000D01*
X65416002Y-139000000D01*
X115498181Y-139000000D01*
X115504159Y-139000289D01*
X115518723Y-139001699D01*
X115542916Y-139003453D01*
X115542917Y-139003453D01*
X115573135Y-139004914D01*
X115585271Y-139005207D01*
X115597406Y-139005500D01*
X115597407Y-139005500D01*
X175578231Y-139005500D01*
X175601835Y-139004946D01*
X175631192Y-139003566D01*
X175632795Y-139003453D01*
X175654672Y-139001911D01*
X175659647Y-139001443D01*
X175672090Y-139000273D01*
X175677899Y-139000000D01*
X176174420Y-139000000D01*
X176174430Y-139000000D01*
X176800000Y-139000000D01*
X177218306Y-138140148D01*
X177222393Y-138133000D01*
X177232268Y-138118129D01*
X177339118Y-137939571D01*
X177350751Y-137919053D01*
X177364644Y-137893154D01*
X177375292Y-137872134D01*
X178785144Y-134919423D01*
X187113514Y-117800000D01*
X187325070Y-117365135D01*
X187327836Y-117360063D01*
X187403824Y-117234989D01*
X187416933Y-117213410D01*
X187430687Y-117194904D01*
X187539602Y-117073756D01*
X187556542Y-117058121D01*
X187686026Y-116959242D01*
X187705564Y-116947020D01*
X187851119Y-116873842D01*
X187872592Y-116865447D01*
X188029184Y-116820503D01*
X188051840Y-116816232D01*
X188163829Y-116805768D01*
X188169596Y-116805500D01*
X213409302Y-116805500D01*
X213433996Y-116804893D01*
X213435313Y-116804828D01*
X213453555Y-116805274D01*
G37*
G04 #@! TD.AperFunction*
G04 #@! TA.AperFunction,Conductor*
G36*
X94582679Y-83400307D02*
G01*
X94690386Y-83411057D01*
X94764960Y-83418501D01*
X94789105Y-83423370D01*
X94872212Y-83448938D01*
X94955322Y-83474508D01*
X94978025Y-83484053D01*
X95122995Y-83562772D01*
X95130844Y-83567034D01*
X95151217Y-83580880D01*
X95291752Y-83698397D01*
X95296271Y-83702574D01*
X107814578Y-96487229D01*
X122905872Y-111899615D01*
X122905882Y-111899624D01*
X123200000Y-112200000D01*
X150656602Y-112200000D01*
X150656605Y-112200000D01*
X150800000Y-112200000D01*
X150937593Y-112159709D01*
X150937623Y-112159703D01*
X150937622Y-112159703D01*
X168900000Y-106900000D01*
X186860275Y-101640913D01*
X186864536Y-101639829D01*
X186888700Y-101634586D01*
X186992817Y-101611999D01*
X187010260Y-101609497D01*
X187123053Y-101601451D01*
X187141199Y-101600157D01*
X187145611Y-101600000D01*
X213396951Y-101600000D01*
X213403032Y-101600299D01*
X213464067Y-101606310D01*
X213582941Y-101618018D01*
X213606769Y-101622757D01*
X213771001Y-101672576D01*
X213793453Y-101681877D01*
X213944798Y-101762772D01*
X213965010Y-101776277D01*
X214097666Y-101885145D01*
X214114854Y-101902333D01*
X214223722Y-102034989D01*
X214237227Y-102055201D01*
X214318121Y-102206543D01*
X214327424Y-102229001D01*
X214377240Y-102393224D01*
X214381982Y-102417065D01*
X214399701Y-102596967D01*
X214400000Y-102603048D01*
X214400000Y-114796951D01*
X214399701Y-114803032D01*
X214381982Y-114982934D01*
X214377240Y-115006775D01*
X214327424Y-115170998D01*
X214318121Y-115193456D01*
X214237227Y-115344798D01*
X214223722Y-115365010D01*
X214114854Y-115497666D01*
X214097666Y-115514854D01*
X213965010Y-115623722D01*
X213944798Y-115637227D01*
X213793456Y-115718121D01*
X213770998Y-115727424D01*
X213606775Y-115777240D01*
X213582934Y-115781982D01*
X213403032Y-115799701D01*
X213396951Y-115800000D01*
X186800000Y-115800000D01*
X186528258Y-116369117D01*
X186528259Y-116369117D01*
X186528257Y-116369121D01*
X176472996Y-137428252D01*
X176470247Y-137433377D01*
X176381562Y-137581579D01*
X176367824Y-137600301D01*
X176258882Y-137722823D01*
X176241893Y-137738657D01*
X176112014Y-137838718D01*
X176092372Y-137851106D01*
X175946109Y-137925198D01*
X175924501Y-137933706D01*
X175766993Y-137979225D01*
X175744178Y-137983555D01*
X175572234Y-137999727D01*
X175566425Y-138000000D01*
X115609547Y-138000000D01*
X115603567Y-137999711D01*
X115426624Y-137982577D01*
X115403165Y-137977990D01*
X115241444Y-137929800D01*
X115219300Y-137920798D01*
X115069820Y-137842468D01*
X115049816Y-137829385D01*
X114911117Y-137718198D01*
X114906632Y-137714233D01*
X99822221Y-123020610D01*
X92614894Y-116000001D01*
X117394390Y-116000001D01*
X117414804Y-116285433D01*
X117475628Y-116565037D01*
X117575635Y-116833166D01*
X117712770Y-117084309D01*
X117712775Y-117084317D01*
X117884254Y-117313387D01*
X117884270Y-117313405D01*
X118086594Y-117515729D01*
X118086612Y-117515745D01*
X118315682Y-117687224D01*
X118315690Y-117687229D01*
X118566833Y-117824364D01*
X118566832Y-117824364D01*
X118566836Y-117824365D01*
X118566839Y-117824367D01*
X118834954Y-117924369D01*
X118834960Y-117924370D01*
X118834962Y-117924371D01*
X119114566Y-117985195D01*
X119114568Y-117985195D01*
X119114572Y-117985196D01*
X119368220Y-118003337D01*
X119399999Y-118005610D01*
X119400000Y-118005610D01*
X119400001Y-118005610D01*
X119428595Y-118003564D01*
X119685428Y-117985196D01*
X119965046Y-117924369D01*
X120233161Y-117824367D01*
X120484315Y-117687226D01*
X120607363Y-117595113D01*
X120700713Y-117525233D01*
X120766177Y-117500816D01*
X120775023Y-117500500D01*
X121287065Y-117500500D01*
X121287067Y-117500500D01*
X121348284Y-117495427D01*
X121472813Y-117485109D01*
X121472815Y-117485108D01*
X121472821Y-117485108D01*
X121499579Y-117478331D01*
X121520284Y-117474920D01*
X121642485Y-117465304D01*
X121856393Y-117411404D01*
X122057239Y-117320176D01*
X122238567Y-117194551D01*
X122394551Y-117038567D01*
X122520176Y-116857239D01*
X122611404Y-116656393D01*
X122665304Y-116442485D01*
X122665780Y-116436424D01*
X122672117Y-116405890D01*
X122684571Y-116369614D01*
X122725500Y-116124335D01*
X122725500Y-115929966D01*
X138299500Y-115929966D01*
X138299501Y-126046032D01*
X138299501Y-126046033D01*
X138310113Y-126165415D01*
X138366089Y-126361045D01*
X138366090Y-126361048D01*
X138366091Y-126361049D01*
X138460302Y-126541407D01*
X138460304Y-126541409D01*
X138588890Y-126699109D01*
X138671221Y-126766240D01*
X138746593Y-126827698D01*
X138926951Y-126921909D01*
X139122582Y-126977886D01*
X139241963Y-126988500D01*
X139241964Y-126988499D01*
X139241965Y-126988500D01*
X139241966Y-126988500D01*
X143505115Y-126988499D01*
X149358036Y-126988499D01*
X149477418Y-126977886D01*
X149673049Y-126921909D01*
X149853407Y-126827698D01*
X150011109Y-126699109D01*
X150139698Y-126541407D01*
X150233909Y-126361049D01*
X150289886Y-126165418D01*
X150300500Y-126046037D01*
X150300499Y-122845589D01*
X150320184Y-122778551D01*
X150372988Y-122732796D01*
X150442146Y-122722852D01*
X150483924Y-122736757D01*
X150560463Y-122778551D01*
X150671833Y-122839364D01*
X150671832Y-122839364D01*
X150671836Y-122839365D01*
X150671839Y-122839367D01*
X150939954Y-122939369D01*
X150939960Y-122939370D01*
X150939962Y-122939371D01*
X151219566Y-123000195D01*
X151219568Y-123000195D01*
X151219572Y-123000196D01*
X151473220Y-123018337D01*
X151504999Y-123020610D01*
X151505000Y-123020610D01*
X151505001Y-123020610D01*
X151533595Y-123018564D01*
X151790428Y-123000196D01*
X152070046Y-122939369D01*
X152338161Y-122839367D01*
X152589315Y-122702226D01*
X152818395Y-122530739D01*
X153020739Y-122328395D01*
X153192226Y-122099315D01*
X153329367Y-121848161D01*
X153429369Y-121580046D01*
X153490196Y-121300428D01*
X153510610Y-121015000D01*
X153490196Y-120729572D01*
X153429369Y-120449954D01*
X153329367Y-120181839D01*
X153318568Y-120162063D01*
X153192229Y-119930690D01*
X153192224Y-119930682D01*
X153020745Y-119701612D01*
X153020729Y-119701594D01*
X152818405Y-119499270D01*
X152818387Y-119499254D01*
X152589317Y-119327775D01*
X152589309Y-119327770D01*
X152338166Y-119190635D01*
X152338167Y-119190635D01*
X152230914Y-119150632D01*
X152070046Y-119090631D01*
X152070043Y-119090630D01*
X152070037Y-119090628D01*
X151790433Y-119029804D01*
X151505001Y-119009390D01*
X151504999Y-119009390D01*
X151219566Y-119029804D01*
X150939962Y-119090628D01*
X150671833Y-119190635D01*
X150483926Y-119293241D01*
X150415653Y-119308093D01*
X150350189Y-119283676D01*
X150308317Y-119227743D01*
X150300499Y-119184409D01*
X150300499Y-115929967D01*
X150289886Y-115810584D01*
X150289886Y-115810583D01*
X150289886Y-115810582D01*
X150233909Y-115614951D01*
X150139698Y-115434593D01*
X150065509Y-115343607D01*
X150011109Y-115276890D01*
X149853409Y-115148304D01*
X149853410Y-115148304D01*
X149853407Y-115148302D01*
X149673049Y-115054091D01*
X149673048Y-115054090D01*
X149673045Y-115054089D01*
X149555829Y-115020550D01*
X149477418Y-114998114D01*
X149477415Y-114998113D01*
X149477413Y-114998113D01*
X149386983Y-114990073D01*
X149358037Y-114987500D01*
X149358035Y-114987500D01*
X149358034Y-114987500D01*
X145003081Y-114987500D01*
X139241964Y-114987501D01*
X139212727Y-114990100D01*
X139122584Y-114998113D01*
X138926954Y-115054089D01*
X138836771Y-115101196D01*
X138746593Y-115148302D01*
X138746591Y-115148303D01*
X138746590Y-115148304D01*
X138588890Y-115276890D01*
X138460304Y-115434590D01*
X138460302Y-115434593D01*
X138418377Y-115514854D01*
X138366089Y-115614954D01*
X138336570Y-115718121D01*
X138313228Y-115799701D01*
X138310114Y-115810583D01*
X138310113Y-115810586D01*
X138299500Y-115929965D01*
X138299500Y-115929966D01*
X122725500Y-115929966D01*
X122725500Y-115875665D01*
X122725499Y-115875664D01*
X122684572Y-115630390D01*
X122672117Y-115594111D01*
X122665779Y-115563566D01*
X122665304Y-115557515D01*
X122611404Y-115343607D01*
X122520176Y-115142761D01*
X122425964Y-115006775D01*
X122394550Y-114961431D01*
X122238568Y-114805449D01*
X122057243Y-114679826D01*
X121856395Y-114588596D01*
X121713787Y-114552662D01*
X121642485Y-114534696D01*
X121599453Y-114531309D01*
X121520279Y-114525078D01*
X121499566Y-114521665D01*
X121472826Y-114514893D01*
X121472813Y-114514890D01*
X121307548Y-114501197D01*
X121287067Y-114499500D01*
X121287065Y-114499500D01*
X120775023Y-114499500D01*
X120707984Y-114479815D01*
X120700713Y-114474767D01*
X120484317Y-114312775D01*
X120484309Y-114312770D01*
X120233166Y-114175635D01*
X120233167Y-114175635D01*
X120125915Y-114135632D01*
X119965046Y-114075631D01*
X119965043Y-114075630D01*
X119965037Y-114075628D01*
X119685433Y-114014804D01*
X119400001Y-113994390D01*
X119399999Y-113994390D01*
X119114566Y-114014804D01*
X118834962Y-114075628D01*
X118566833Y-114175635D01*
X118315690Y-114312770D01*
X118315682Y-114312775D01*
X118086612Y-114484254D01*
X118086594Y-114484270D01*
X117884270Y-114686594D01*
X117884254Y-114686612D01*
X117712775Y-114915682D01*
X117712770Y-114915690D01*
X117575635Y-115166833D01*
X117475628Y-115434962D01*
X117414804Y-115714566D01*
X117394390Y-115999998D01*
X117394390Y-116000001D01*
X92614894Y-116000001D01*
X76904449Y-100696562D01*
X76900242Y-100692033D01*
X76782022Y-100551309D01*
X76768097Y-100530907D01*
X76684593Y-100377716D01*
X76674988Y-100354950D01*
X76671207Y-100342704D01*
X76623521Y-100188245D01*
X76618623Y-100164034D01*
X76609224Y-100070186D01*
X76600309Y-99981158D01*
X76600000Y-99974976D01*
X76600000Y-94800002D01*
X82694390Y-94800002D01*
X82699062Y-94865336D01*
X82699063Y-94865343D01*
X82714804Y-95085433D01*
X82775628Y-95365037D01*
X82775630Y-95365043D01*
X82775631Y-95365046D01*
X82875633Y-95633161D01*
X82875635Y-95633166D01*
X83012770Y-95884309D01*
X83012775Y-95884317D01*
X83184254Y-96113387D01*
X83184270Y-96113405D01*
X83386594Y-96315729D01*
X83386612Y-96315745D01*
X83615682Y-96487224D01*
X83615690Y-96487229D01*
X83866833Y-96624364D01*
X83866832Y-96624364D01*
X83866836Y-96624365D01*
X83866839Y-96624367D01*
X84134954Y-96724369D01*
X84134960Y-96724370D01*
X84134962Y-96724371D01*
X84414566Y-96785195D01*
X84414568Y-96785195D01*
X84414572Y-96785196D01*
X84668220Y-96803337D01*
X84699999Y-96805610D01*
X84700000Y-96805610D01*
X84700001Y-96805610D01*
X84728595Y-96803564D01*
X84985428Y-96785196D01*
X85072573Y-96766239D01*
X85265037Y-96724371D01*
X85265037Y-96724370D01*
X85265046Y-96724369D01*
X85533161Y-96624367D01*
X85784315Y-96487226D01*
X86013395Y-96315739D01*
X86215739Y-96113395D01*
X86387226Y-95884315D01*
X86524367Y-95633161D01*
X86624369Y-95365046D01*
X86685196Y-95085428D01*
X86700500Y-94871448D01*
X86700500Y-94871447D01*
X86705610Y-94800000D01*
X86700657Y-94730760D01*
X86700500Y-94726338D01*
X86700500Y-92851413D01*
X86708318Y-92808080D01*
X86724369Y-92765046D01*
X86785196Y-92485428D01*
X86805610Y-92200000D01*
X86785196Y-91914572D01*
X86746124Y-91734962D01*
X86724371Y-91634962D01*
X86724370Y-91634960D01*
X86724369Y-91634954D01*
X86624367Y-91366839D01*
X86541830Y-91215685D01*
X86487229Y-91115690D01*
X86487224Y-91115682D01*
X86315745Y-90886612D01*
X86315729Y-90886594D01*
X86113405Y-90684270D01*
X86113387Y-90684254D01*
X85884317Y-90512775D01*
X85884309Y-90512770D01*
X85633166Y-90375635D01*
X85633167Y-90375635D01*
X85525914Y-90335632D01*
X85365046Y-90275631D01*
X85365043Y-90275630D01*
X85365037Y-90275628D01*
X85085433Y-90214804D01*
X84800001Y-90194390D01*
X84799999Y-90194390D01*
X84514566Y-90214804D01*
X84234962Y-90275628D01*
X83966833Y-90375635D01*
X83715690Y-90512770D01*
X83715682Y-90512775D01*
X83486612Y-90684254D01*
X83386605Y-90784261D01*
X83184270Y-90986594D01*
X83184254Y-90986612D01*
X83012775Y-91215682D01*
X83012770Y-91215690D01*
X82875635Y-91466833D01*
X82775628Y-91734962D01*
X82714804Y-92014566D01*
X82699500Y-92228552D01*
X82699500Y-94726338D01*
X82699342Y-94730762D01*
X82694390Y-94799998D01*
X82694390Y-94800002D01*
X76600000Y-94800002D01*
X76600000Y-84403048D01*
X76600299Y-84396967D01*
X76604706Y-84352213D01*
X76618018Y-84217056D01*
X76622757Y-84193232D01*
X76672577Y-84028994D01*
X76681875Y-84006549D01*
X76762775Y-83855195D01*
X76776272Y-83834995D01*
X76885149Y-83702328D01*
X76902328Y-83685149D01*
X77034995Y-83576272D01*
X77055195Y-83562775D01*
X77206549Y-83481875D01*
X77228994Y-83472577D01*
X77393232Y-83422757D01*
X77417056Y-83418018D01*
X77531501Y-83406746D01*
X77596969Y-83400299D01*
X77603049Y-83400000D01*
X94576517Y-83400000D01*
X94582679Y-83400307D01*
G37*
G04 #@! TD.AperFunction*
M02*
