G04 #@! TF.GenerationSoftware,KiCad,Pcbnew,7.0.7*
G04 #@! TF.CreationDate,2023-10-24T13:27:02-04:00*
G04 #@! TF.ProjectId,SchineLab_CoilFET_Board,53636869-6e65-44c6-9162-5f436f696c46,rev?*
G04 #@! TF.SameCoordinates,Original*
G04 #@! TF.FileFunction,Copper,L1,Top*
G04 #@! TF.FilePolarity,Positive*
%FSLAX46Y46*%
G04 Gerber Fmt 4.6, Leading zero omitted, Abs format (unit mm)*
G04 Created by KiCad (PCBNEW 7.0.7) date 2023-10-24 13:27:02*
%MOMM*%
%LPD*%
G01*
G04 APERTURE LIST*
G04 Aperture macros list*
%AMRoundRect*
0 Rectangle with rounded corners*
0 $1 Rounding radius*
0 $2 $3 $4 $5 $6 $7 $8 $9 X,Y pos of 4 corners*
0 Add a 4 corners polygon primitive as box body*
4,1,4,$2,$3,$4,$5,$6,$7,$8,$9,$2,$3,0*
0 Add four circle primitives for the rounded corners*
1,1,$1+$1,$2,$3*
1,1,$1+$1,$4,$5*
1,1,$1+$1,$6,$7*
1,1,$1+$1,$8,$9*
0 Add four rect primitives between the rounded corners*
20,1,$1+$1,$2,$3,$4,$5,0*
20,1,$1+$1,$4,$5,$6,$7,0*
20,1,$1+$1,$6,$7,$8,$9,0*
20,1,$1+$1,$8,$9,$2,$3,0*%
G04 Aperture macros list end*
G04 #@! TA.AperFunction,ComponentPad*
%ADD10O,4.200000X2.500000*%
G04 #@! TD*
G04 #@! TA.AperFunction,ComponentPad*
%ADD11C,2.000000*%
G04 #@! TD*
G04 #@! TA.AperFunction,SMDPad,CuDef*
%ADD12RoundRect,0.237500X-0.250000X-0.237500X0.250000X-0.237500X0.250000X0.237500X-0.250000X0.237500X0*%
G04 #@! TD*
G04 #@! TA.AperFunction,SMDPad,CuDef*
%ADD13RoundRect,0.237500X0.250000X0.237500X-0.250000X0.237500X-0.250000X-0.237500X0.250000X-0.237500X0*%
G04 #@! TD*
G04 #@! TA.AperFunction,ComponentPad*
%ADD14R,10.000000X10.000000*%
G04 #@! TD*
G04 #@! TA.AperFunction,ComponentPad*
%ADD15O,4.000000X2.800000*%
G04 #@! TD*
G04 #@! TA.AperFunction,ComponentPad*
%ADD16O,3.600000X2.300000*%
G04 #@! TD*
G04 #@! TA.AperFunction,ComponentPad*
%ADD17R,1.700000X1.700000*%
G04 #@! TD*
G04 #@! TA.AperFunction,ComponentPad*
%ADD18O,1.700000X1.700000*%
G04 #@! TD*
G04 #@! TA.AperFunction,ViaPad*
%ADD19C,2.000000*%
G04 #@! TD*
G04 #@! TA.AperFunction,Conductor*
%ADD20C,0.000000*%
G04 #@! TD*
G04 #@! TA.AperFunction,Conductor*
%ADD21C,0.250000*%
G04 #@! TD*
G04 #@! TA.AperFunction,Conductor*
%ADD22C,1.000000*%
G04 #@! TD*
G04 APERTURE END LIST*
D10*
X192000000Y-61500000D03*
X204500000Y-61500000D03*
X192000000Y-65310000D03*
X204500000Y-65310000D03*
X192000000Y-76500000D03*
X204500000Y-76500000D03*
X192000000Y-80310000D03*
X204500000Y-80310000D03*
X192000000Y-91500001D03*
X204500000Y-91500001D03*
X192000000Y-95310001D03*
X204500000Y-95310001D03*
X192000000Y-106500001D03*
X204500000Y-106500001D03*
X192000000Y-110310001D03*
X204500000Y-110310001D03*
X192000000Y-121500002D03*
X204500000Y-121500002D03*
X192000000Y-125310002D03*
X204500000Y-125310002D03*
D11*
X84700000Y-94800000D03*
X92200000Y-94800000D03*
X91600000Y-60000000D03*
X84100000Y-60000000D03*
D12*
X153087500Y-121000000D03*
X154912500Y-121000000D03*
D13*
X122912500Y-66000000D03*
X121087500Y-66000000D03*
D14*
X131700000Y-66012000D03*
X144300000Y-66012000D03*
X131700000Y-80998000D03*
X144300000Y-80998000D03*
X144300000Y-120988000D03*
X131700000Y-120988000D03*
X144300000Y-106002000D03*
X131700000Y-106002000D03*
D15*
X51325000Y-111285000D03*
D16*
X51325000Y-116365000D03*
X51325000Y-123985000D03*
D15*
X51325000Y-129065000D03*
D17*
X41778000Y-52860000D03*
D18*
X41778000Y-55400000D03*
D17*
X41778000Y-118900000D03*
D18*
X41778000Y-121440000D03*
D17*
X41778000Y-78260000D03*
D18*
X41778000Y-80800000D03*
D19*
X195800000Y-125200000D03*
X200400000Y-125200000D03*
X200400000Y-121600000D03*
X195800000Y-121600000D03*
X47000000Y-129200000D03*
X62000000Y-129400000D03*
X59000000Y-129400000D03*
X56200000Y-129400000D03*
X119400000Y-116000000D03*
X41800000Y-49000000D03*
X156800000Y-60000000D03*
X84800000Y-92200000D03*
X41800000Y-74400000D03*
X84000000Y-56800000D03*
X124555000Y-66005000D03*
X151505000Y-121015000D03*
X41778000Y-59200000D03*
X41800000Y-84400000D03*
D20*
X123600000Y-66005000D02*
X123600000Y-66000000D01*
X124555000Y-66005000D02*
X123600000Y-66005000D01*
D21*
X124550000Y-66000000D02*
X124555000Y-66005000D01*
X122912500Y-66000000D02*
X122924500Y-66012000D01*
D22*
X122912500Y-66000000D02*
X124550000Y-66000000D01*
X151505000Y-121015000D02*
X153072500Y-121015000D01*
D21*
X153087500Y-121000000D02*
X153075500Y-120988000D01*
X153072500Y-121015000D02*
X153087500Y-121000000D01*
D22*
X59785000Y-43015000D02*
X43600000Y-59200000D01*
X43600000Y-59200000D02*
X41778000Y-59200000D01*
X98102500Y-43015000D02*
X121087500Y-66000000D01*
X59785000Y-43015000D02*
X98102500Y-43015000D01*
X150555000Y-113225000D02*
X154912500Y-117582500D01*
X70625000Y-113225000D02*
X150555000Y-113225000D01*
X41800000Y-84400000D02*
X70625000Y-113225000D01*
X154912500Y-117582500D02*
X154912500Y-121000000D01*
G04 #@! TA.AperFunction,Conductor*
G36*
X228603032Y-30400299D02*
G01*
X228664067Y-30406310D01*
X228782941Y-30418018D01*
X228806769Y-30422757D01*
X228971001Y-30472576D01*
X228993453Y-30481877D01*
X229144798Y-30562772D01*
X229165010Y-30576277D01*
X229297666Y-30685145D01*
X229314854Y-30702333D01*
X229423722Y-30834989D01*
X229437227Y-30855201D01*
X229518121Y-31006543D01*
X229527424Y-31029001D01*
X229577240Y-31193224D01*
X229581982Y-31217065D01*
X229599701Y-31396967D01*
X229600000Y-31403048D01*
X229600000Y-155596951D01*
X229599701Y-155603032D01*
X229581982Y-155782934D01*
X229577240Y-155806775D01*
X229527424Y-155970998D01*
X229518121Y-155993456D01*
X229437227Y-156144798D01*
X229423722Y-156165010D01*
X229314854Y-156297666D01*
X229297666Y-156314854D01*
X229165010Y-156423722D01*
X229144798Y-156437227D01*
X228993456Y-156518121D01*
X228970998Y-156527424D01*
X228806775Y-156577240D01*
X228782934Y-156581982D01*
X228603032Y-156599701D01*
X228596951Y-156600000D01*
X31403049Y-156600000D01*
X31396968Y-156599701D01*
X31217065Y-156581982D01*
X31193224Y-156577240D01*
X31029001Y-156527424D01*
X31006543Y-156518121D01*
X30855201Y-156437227D01*
X30834989Y-156423722D01*
X30702333Y-156314854D01*
X30685145Y-156297666D01*
X30576277Y-156165010D01*
X30562772Y-156144798D01*
X30481878Y-155993456D01*
X30472575Y-155970998D01*
X30422757Y-155806769D01*
X30418018Y-155782941D01*
X30400299Y-155603032D01*
X30400000Y-155596951D01*
X30400000Y-150725373D01*
X37745723Y-150725373D01*
X37775881Y-151025160D01*
X37775882Y-151025162D01*
X37845728Y-151318252D01*
X37845733Y-151318266D01*
X37954020Y-151599427D01*
X37954024Y-151599436D01*
X38098825Y-151863665D01*
X38098829Y-151863671D01*
X38277551Y-152106234D01*
X38277554Y-152106238D01*
X38277561Y-152106245D01*
X38487019Y-152322823D01*
X38723478Y-152509553D01*
X38723480Y-152509554D01*
X38723485Y-152509558D01*
X38982730Y-152663109D01*
X39260128Y-152780736D01*
X39550729Y-152860340D01*
X39849347Y-152900500D01*
X39849351Y-152900500D01*
X40075252Y-152900500D01*
X40239164Y-152889526D01*
X40300634Y-152885412D01*
X40595903Y-152825396D01*
X40880537Y-152726560D01*
X41149459Y-152590668D01*
X41397869Y-152420144D01*
X41621333Y-152218032D01*
X41815865Y-151987939D01*
X41977993Y-151733970D01*
X42104823Y-151460658D01*
X42194093Y-151172879D01*
X42244209Y-150875770D01*
X42249237Y-150725373D01*
X217745723Y-150725373D01*
X217775881Y-151025160D01*
X217775882Y-151025162D01*
X217845728Y-151318252D01*
X217845733Y-151318266D01*
X217954020Y-151599427D01*
X217954024Y-151599436D01*
X218098825Y-151863665D01*
X218098829Y-151863671D01*
X218277551Y-152106234D01*
X218277554Y-152106238D01*
X218277561Y-152106245D01*
X218487019Y-152322823D01*
X218723478Y-152509553D01*
X218723480Y-152509554D01*
X218723485Y-152509558D01*
X218982730Y-152663109D01*
X219260128Y-152780736D01*
X219550729Y-152860340D01*
X219849347Y-152900500D01*
X219849351Y-152900500D01*
X220075252Y-152900500D01*
X220239164Y-152889526D01*
X220300634Y-152885412D01*
X220595903Y-152825396D01*
X220880537Y-152726560D01*
X221149459Y-152590668D01*
X221397869Y-152420144D01*
X221621333Y-152218032D01*
X221815865Y-151987939D01*
X221977993Y-151733970D01*
X222104823Y-151460658D01*
X222194093Y-151172879D01*
X222244209Y-150875770D01*
X222254277Y-150574631D01*
X222224118Y-150274838D01*
X222154269Y-149981739D01*
X222045977Y-149700566D01*
X221901175Y-149436335D01*
X221722446Y-149193762D01*
X221512980Y-148977176D01*
X221389742Y-148879856D01*
X221276521Y-148790446D01*
X221276517Y-148790443D01*
X221276515Y-148790442D01*
X221017270Y-148636891D01*
X220739872Y-148519264D01*
X220739863Y-148519261D01*
X220449272Y-148439660D01*
X220374616Y-148429620D01*
X220150653Y-148399500D01*
X219924756Y-148399500D01*
X219924748Y-148399500D01*
X219699368Y-148414587D01*
X219699359Y-148414589D01*
X219404094Y-148474604D01*
X219119464Y-148573439D01*
X219119459Y-148573441D01*
X218850546Y-148709328D01*
X218602125Y-148879860D01*
X218378665Y-149081969D01*
X218184132Y-149312064D01*
X218022006Y-149566030D01*
X218022005Y-149566032D01*
X217895181Y-149839333D01*
X217895177Y-149839342D01*
X217895176Y-149839346D01*
X217805907Y-150127118D01*
X217755791Y-150424230D01*
X217745723Y-150725373D01*
X42249237Y-150725373D01*
X42254277Y-150574631D01*
X42224118Y-150274838D01*
X42154269Y-149981739D01*
X42045977Y-149700566D01*
X41901175Y-149436335D01*
X41722446Y-149193762D01*
X41512980Y-148977176D01*
X41389742Y-148879856D01*
X41276521Y-148790446D01*
X41276517Y-148790443D01*
X41276515Y-148790442D01*
X41017270Y-148636891D01*
X40739872Y-148519264D01*
X40739863Y-148519261D01*
X40449272Y-148439660D01*
X40374616Y-148429620D01*
X40150653Y-148399500D01*
X39924756Y-148399500D01*
X39924748Y-148399500D01*
X39699368Y-148414587D01*
X39699359Y-148414589D01*
X39404094Y-148474604D01*
X39119464Y-148573439D01*
X39119459Y-148573441D01*
X38850546Y-148709328D01*
X38602125Y-148879860D01*
X38378665Y-149081969D01*
X38184132Y-149312064D01*
X38022006Y-149566030D01*
X38022005Y-149566032D01*
X37895181Y-149839333D01*
X37895177Y-149839342D01*
X37895176Y-149839346D01*
X37805907Y-150127118D01*
X37755791Y-150424230D01*
X37745723Y-150725373D01*
X30400000Y-150725373D01*
X30400000Y-124132098D01*
X48524500Y-124132098D01*
X48564560Y-124423554D01*
X48564561Y-124423560D01*
X48643934Y-124706845D01*
X48761137Y-124976675D01*
X48761139Y-124976680D01*
X48913998Y-125228045D01*
X49099661Y-125456256D01*
X49314676Y-125657067D01*
X49555016Y-125826717D01*
X49555022Y-125826721D01*
X49555024Y-125826722D01*
X49816236Y-125962072D01*
X50018204Y-126033851D01*
X50093440Y-126060590D01*
X50093456Y-126060595D01*
X50297955Y-126103089D01*
X50381487Y-126120447D01*
X50381488Y-126120448D01*
X50418163Y-126122956D01*
X50601538Y-126135500D01*
X50601543Y-126135500D01*
X52048457Y-126135500D01*
X52048462Y-126135500D01*
X52268511Y-126120448D01*
X52398135Y-126093511D01*
X52556543Y-126060595D01*
X52556549Y-126060592D01*
X52556554Y-126060592D01*
X52833764Y-125962072D01*
X53094976Y-125826722D01*
X53335326Y-125657065D01*
X53550335Y-125456260D01*
X53735999Y-125228049D01*
X53888859Y-124976682D01*
X54006067Y-124706841D01*
X54085440Y-124423555D01*
X54125500Y-124132098D01*
X54125500Y-123837902D01*
X54085440Y-123546445D01*
X54006067Y-123263159D01*
X54006065Y-123263154D01*
X53888862Y-122993324D01*
X53888860Y-122993319D01*
X53736001Y-122741954D01*
X53728550Y-122732796D01*
X53564165Y-122530739D01*
X53550338Y-122513743D01*
X53535735Y-122500105D01*
X53335326Y-122312935D01*
X53335323Y-122312932D01*
X53094983Y-122143282D01*
X53094977Y-122143278D01*
X52833762Y-122007927D01*
X52556559Y-121909409D01*
X52556543Y-121909404D01*
X52268513Y-121849552D01*
X52268511Y-121849551D01*
X52104538Y-121838335D01*
X52048462Y-121834500D01*
X50601538Y-121834500D01*
X50548181Y-121838149D01*
X50381488Y-121849551D01*
X50381486Y-121849552D01*
X50093456Y-121909404D01*
X50093440Y-121909409D01*
X49816237Y-122007927D01*
X49555022Y-122143278D01*
X49555016Y-122143282D01*
X49314676Y-122312932D01*
X49099661Y-122513743D01*
X48913998Y-122741954D01*
X48761139Y-122993319D01*
X48761137Y-122993324D01*
X48643934Y-123263154D01*
X48564561Y-123546439D01*
X48564560Y-123546445D01*
X48524500Y-123837901D01*
X48524500Y-124132098D01*
X30400000Y-124132098D01*
X30400000Y-121440001D01*
X39922773Y-121440001D01*
X39941657Y-121704027D01*
X39941658Y-121704034D01*
X39997921Y-121962673D01*
X40090426Y-122210690D01*
X40090428Y-122210694D01*
X40217280Y-122443005D01*
X40217285Y-122443013D01*
X40375906Y-122654907D01*
X40375922Y-122654925D01*
X40563074Y-122842077D01*
X40563092Y-122842093D01*
X40774986Y-123000714D01*
X40774994Y-123000719D01*
X41007305Y-123127571D01*
X41007309Y-123127573D01*
X41007311Y-123127574D01*
X41255322Y-123220077D01*
X41255325Y-123220077D01*
X41255326Y-123220078D01*
X41450552Y-123262546D01*
X41513974Y-123276343D01*
X41757660Y-123293772D01*
X41777999Y-123295227D01*
X41778000Y-123295227D01*
X41778001Y-123295227D01*
X41796884Y-123293876D01*
X42042026Y-123276343D01*
X42300678Y-123220077D01*
X42548689Y-123127574D01*
X42781011Y-123000716D01*
X42992915Y-122842087D01*
X43180087Y-122654915D01*
X43338716Y-122443011D01*
X43465574Y-122210689D01*
X43558077Y-121962678D01*
X43614343Y-121704026D01*
X43633227Y-121440000D01*
X43614343Y-121175974D01*
X43558077Y-120917322D01*
X43465574Y-120669311D01*
X43386717Y-120524896D01*
X43371865Y-120456624D01*
X43396282Y-120391159D01*
X43399426Y-120387134D01*
X43467698Y-120303407D01*
X43561909Y-120123049D01*
X43617886Y-119927418D01*
X43628500Y-119808037D01*
X43628499Y-117991964D01*
X43617886Y-117872582D01*
X43561909Y-117676951D01*
X43467698Y-117496593D01*
X43385884Y-117396256D01*
X43339109Y-117338890D01*
X43181409Y-117210304D01*
X43181410Y-117210304D01*
X43181407Y-117210302D01*
X43001049Y-117116091D01*
X43001048Y-117116090D01*
X43001045Y-117116089D01*
X42883829Y-117082550D01*
X42805418Y-117060114D01*
X42805415Y-117060113D01*
X42805413Y-117060113D01*
X42714983Y-117052073D01*
X42686037Y-117049500D01*
X42686035Y-117049500D01*
X42686034Y-117049500D01*
X41905590Y-117049500D01*
X40869964Y-117049501D01*
X40840727Y-117052100D01*
X40750584Y-117060113D01*
X40554954Y-117116089D01*
X40533247Y-117127428D01*
X40374593Y-117210302D01*
X40374591Y-117210303D01*
X40374590Y-117210304D01*
X40216890Y-117338890D01*
X40088304Y-117496590D01*
X39994089Y-117676954D01*
X39938114Y-117872583D01*
X39938113Y-117872586D01*
X39927500Y-117991965D01*
X39927500Y-117991966D01*
X39927501Y-119808032D01*
X39927501Y-119808033D01*
X39938113Y-119927415D01*
X39994089Y-120123045D01*
X39994090Y-120123047D01*
X39994091Y-120123049D01*
X40088302Y-120303407D01*
X40088304Y-120303409D01*
X40156551Y-120387108D01*
X40183660Y-120451505D01*
X40171651Y-120520334D01*
X40169282Y-120524895D01*
X40090426Y-120669309D01*
X39997921Y-120917326D01*
X39941658Y-121175965D01*
X39941657Y-121175972D01*
X39922773Y-121439998D01*
X39922773Y-121440001D01*
X30400000Y-121440001D01*
X30400000Y-116512098D01*
X48524500Y-116512098D01*
X48564560Y-116803554D01*
X48564561Y-116803560D01*
X48643934Y-117086845D01*
X48761137Y-117356675D01*
X48761139Y-117356680D01*
X48913998Y-117608045D01*
X49099661Y-117836256D01*
X49099664Y-117836258D01*
X49099665Y-117836260D01*
X49138561Y-117872586D01*
X49314676Y-118037067D01*
X49555016Y-118206717D01*
X49555022Y-118206721D01*
X49555024Y-118206722D01*
X49816236Y-118342072D01*
X50018204Y-118413851D01*
X50093440Y-118440590D01*
X50093456Y-118440595D01*
X50297955Y-118483089D01*
X50381487Y-118500447D01*
X50381488Y-118500448D01*
X50418163Y-118502956D01*
X50601538Y-118515500D01*
X50601543Y-118515500D01*
X52048457Y-118515500D01*
X52048462Y-118515500D01*
X52268511Y-118500448D01*
X52398135Y-118473511D01*
X52556543Y-118440595D01*
X52556549Y-118440592D01*
X52556554Y-118440592D01*
X52833764Y-118342072D01*
X53094976Y-118206722D01*
X53335326Y-118037065D01*
X53550335Y-117836260D01*
X53735999Y-117608049D01*
X53888859Y-117356682D01*
X54006067Y-117086841D01*
X54085440Y-116803555D01*
X54125500Y-116512098D01*
X54125500Y-116217902D01*
X54085924Y-115929966D01*
X125699500Y-115929966D01*
X125699501Y-126046032D01*
X125699501Y-126046033D01*
X125710113Y-126165415D01*
X125766089Y-126361045D01*
X125766090Y-126361048D01*
X125766091Y-126361049D01*
X125860302Y-126541407D01*
X125860304Y-126541409D01*
X125988890Y-126699109D01*
X126082803Y-126775684D01*
X126146593Y-126827698D01*
X126326951Y-126921909D01*
X126522582Y-126977886D01*
X126641963Y-126988500D01*
X126641964Y-126988499D01*
X126641965Y-126988500D01*
X126641966Y-126988500D01*
X130922203Y-126988499D01*
X136758036Y-126988499D01*
X136877418Y-126977886D01*
X137073049Y-126921909D01*
X137253407Y-126827698D01*
X137411109Y-126699109D01*
X137539698Y-126541407D01*
X137633909Y-126361049D01*
X137689886Y-126165418D01*
X137700500Y-126046037D01*
X137700499Y-115929964D01*
X137689886Y-115810582D01*
X137633909Y-115614951D01*
X137539698Y-115434593D01*
X137487684Y-115370803D01*
X137411109Y-115276890D01*
X137253409Y-115148304D01*
X137253410Y-115148304D01*
X137253407Y-115148302D01*
X137073049Y-115054091D01*
X137073048Y-115054090D01*
X137073045Y-115054089D01*
X136955829Y-115020550D01*
X136877418Y-114998114D01*
X136877415Y-114998113D01*
X136877413Y-114998113D01*
X136786983Y-114990073D01*
X136758037Y-114987500D01*
X136758035Y-114987500D01*
X136758034Y-114987500D01*
X132420169Y-114987500D01*
X126641964Y-114987501D01*
X126612727Y-114990100D01*
X126522584Y-114998113D01*
X126326954Y-115054089D01*
X126236772Y-115101196D01*
X126146593Y-115148302D01*
X126146591Y-115148303D01*
X126146590Y-115148304D01*
X125988890Y-115276890D01*
X125860304Y-115434590D01*
X125766089Y-115614954D01*
X125710114Y-115810583D01*
X125710113Y-115810586D01*
X125699500Y-115929965D01*
X125699500Y-115929966D01*
X54085924Y-115929966D01*
X54085440Y-115926445D01*
X54006067Y-115643159D01*
X53993815Y-115614951D01*
X53888862Y-115373324D01*
X53888860Y-115373319D01*
X53736001Y-115121954D01*
X53680790Y-115054091D01*
X53635249Y-114998113D01*
X53550338Y-114893743D01*
X53335323Y-114692932D01*
X53094983Y-114523282D01*
X53094977Y-114523278D01*
X52833762Y-114387927D01*
X52556559Y-114289409D01*
X52556543Y-114289404D01*
X52268513Y-114229552D01*
X52268511Y-114229551D01*
X52104538Y-114218335D01*
X52048462Y-114214500D01*
X50601538Y-114214500D01*
X50548181Y-114218149D01*
X50381488Y-114229551D01*
X50381486Y-114229552D01*
X50093456Y-114289404D01*
X50093440Y-114289409D01*
X49816237Y-114387927D01*
X49555022Y-114523278D01*
X49555016Y-114523282D01*
X49314676Y-114692932D01*
X49099661Y-114893743D01*
X48913998Y-115121954D01*
X48761139Y-115373319D01*
X48761137Y-115373324D01*
X48643934Y-115643154D01*
X48564561Y-115926439D01*
X48564560Y-115926445D01*
X48524500Y-116217901D01*
X48524500Y-116512098D01*
X30400000Y-116512098D01*
X30400000Y-111207903D01*
X48320793Y-111207903D01*
X48330672Y-111515970D01*
X48330672Y-111515975D01*
X48330673Y-111515978D01*
X48379867Y-111820261D01*
X48433104Y-111999634D01*
X48467571Y-112115763D01*
X48559358Y-112323110D01*
X48592337Y-112397609D01*
X48752123Y-112661193D01*
X48752127Y-112661198D01*
X48752133Y-112661207D01*
X48944297Y-112902174D01*
X48944299Y-112902176D01*
X48944303Y-112902180D01*
X48944304Y-112902181D01*
X49165724Y-113116614D01*
X49332862Y-113241352D01*
X49412741Y-113300968D01*
X49412743Y-113300969D01*
X49412747Y-113300972D01*
X49681318Y-113452228D01*
X49822057Y-113509207D01*
X49967018Y-113567897D01*
X49967023Y-113567898D01*
X49967025Y-113567899D01*
X50265179Y-113646084D01*
X50570883Y-113685500D01*
X50570890Y-113685500D01*
X52001980Y-113685500D01*
X52100814Y-113679154D01*
X52232601Y-113670693D01*
X52535151Y-113611772D01*
X52827683Y-113514644D01*
X52827689Y-113514640D01*
X52827693Y-113514640D01*
X53018571Y-113422717D01*
X53105393Y-113380907D01*
X53363720Y-113212754D01*
X53598424Y-113012948D01*
X53805650Y-112784769D01*
X53981996Y-112531963D01*
X54124567Y-112258683D01*
X54231020Y-111969415D01*
X54299609Y-111668908D01*
X54329206Y-111362098D01*
X54319327Y-111054022D01*
X54270133Y-110749739D01*
X54182431Y-110454244D01*
X54182429Y-110454239D01*
X54182428Y-110454236D01*
X54057666Y-110172398D01*
X54057663Y-110172391D01*
X53897877Y-109908807D01*
X53897870Y-109908799D01*
X53897866Y-109908792D01*
X53705702Y-109667825D01*
X53705700Y-109667823D01*
X53678775Y-109641748D01*
X53484276Y-109453386D01*
X53355450Y-109357241D01*
X53237258Y-109269031D01*
X53237253Y-109269028D01*
X52968682Y-109117772D01*
X52915718Y-109096329D01*
X52682981Y-109002102D01*
X52515660Y-108958226D01*
X52384821Y-108923916D01*
X52079117Y-108884500D01*
X50648026Y-108884500D01*
X50648020Y-108884500D01*
X50417406Y-108899306D01*
X50417389Y-108899308D01*
X50114854Y-108958226D01*
X50114849Y-108958228D01*
X49822310Y-109055358D01*
X49822306Y-109055359D01*
X49544613Y-109189089D01*
X49544605Y-109189094D01*
X49286286Y-109357241D01*
X49286276Y-109357248D01*
X49051581Y-109557046D01*
X49051571Y-109557056D01*
X48844354Y-109785225D01*
X48844350Y-109785229D01*
X48668005Y-110038033D01*
X48668003Y-110038037D01*
X48525432Y-110311319D01*
X48525429Y-110311326D01*
X48418981Y-110600580D01*
X48418979Y-110600590D01*
X48350391Y-110901089D01*
X48320794Y-111207902D01*
X48320793Y-111207903D01*
X30400000Y-111207903D01*
X30400000Y-84400001D01*
X39794390Y-84400001D01*
X39814804Y-84685433D01*
X39875628Y-84965037D01*
X39975635Y-85233166D01*
X40112770Y-85484309D01*
X40112775Y-85484317D01*
X40284254Y-85713387D01*
X40284270Y-85713405D01*
X40486594Y-85915729D01*
X40486612Y-85915745D01*
X40715682Y-86087224D01*
X40715690Y-86087229D01*
X40966833Y-86224364D01*
X40966832Y-86224364D01*
X40966836Y-86224365D01*
X40966839Y-86224367D01*
X41234954Y-86324369D01*
X41234960Y-86324370D01*
X41234962Y-86324371D01*
X41374763Y-86354782D01*
X41514572Y-86385196D01*
X41628483Y-86393342D01*
X41693946Y-86417758D01*
X41707317Y-86429345D01*
X69495384Y-114217412D01*
X69500473Y-114223174D01*
X69517262Y-114244744D01*
X69517264Y-114244746D01*
X69517265Y-114244747D01*
X69585921Y-114307950D01*
X69607866Y-114329894D01*
X69607874Y-114329902D01*
X69631564Y-114349966D01*
X69700215Y-114413164D01*
X69700217Y-114413165D01*
X69700218Y-114413166D01*
X69723086Y-114428106D01*
X69729250Y-114432702D01*
X69750106Y-114450366D01*
X69794037Y-114476543D01*
X69830275Y-114498137D01*
X69902600Y-114545388D01*
X69908393Y-114549173D01*
X69916352Y-114552664D01*
X69933416Y-114560150D01*
X69940248Y-114563665D01*
X69963727Y-114577656D01*
X69979379Y-114583763D01*
X70050659Y-114611577D01*
X70105393Y-114635585D01*
X70136119Y-114649063D01*
X70136123Y-114649064D01*
X70162609Y-114655771D01*
X70169932Y-114658116D01*
X70195386Y-114668049D01*
X70286711Y-114687198D01*
X70377179Y-114710108D01*
X70377184Y-114710108D01*
X70377187Y-114710109D01*
X70404406Y-114712364D01*
X70412016Y-114713473D01*
X70426880Y-114716589D01*
X70438763Y-114719081D01*
X70532009Y-114722937D01*
X70562933Y-114725500D01*
X70562934Y-114725500D01*
X70593965Y-114725500D01*
X70687221Y-114729357D01*
X70714347Y-114725975D01*
X70722019Y-114725500D01*
X149882110Y-114725500D01*
X149949149Y-114745185D01*
X149969791Y-114761819D01*
X153375681Y-118167708D01*
X153409166Y-118229031D01*
X153412000Y-118255389D01*
X153412000Y-119400500D01*
X153392315Y-119467539D01*
X153339511Y-119513294D01*
X153288000Y-119524500D01*
X153257809Y-119524500D01*
X153252695Y-119524288D01*
X153134567Y-119514500D01*
X153134565Y-119514500D01*
X152880023Y-119514500D01*
X152812984Y-119494815D01*
X152805713Y-119489767D01*
X152589317Y-119327775D01*
X152589309Y-119327770D01*
X152338166Y-119190635D01*
X152338167Y-119190635D01*
X152230914Y-119150632D01*
X152070046Y-119090631D01*
X152070043Y-119090630D01*
X152070037Y-119090628D01*
X151790433Y-119029804D01*
X151505001Y-119009390D01*
X151504999Y-119009390D01*
X151219566Y-119029804D01*
X150939962Y-119090628D01*
X150671833Y-119190635D01*
X150483926Y-119293241D01*
X150415653Y-119308093D01*
X150350189Y-119283676D01*
X150308317Y-119227743D01*
X150300499Y-119184409D01*
X150300499Y-115929967D01*
X150300185Y-115926439D01*
X150289886Y-115810582D01*
X150233909Y-115614951D01*
X150139698Y-115434593D01*
X150087684Y-115370803D01*
X150011109Y-115276890D01*
X149853409Y-115148304D01*
X149853410Y-115148304D01*
X149853407Y-115148302D01*
X149673049Y-115054091D01*
X149673048Y-115054090D01*
X149673045Y-115054089D01*
X149555829Y-115020550D01*
X149477418Y-114998114D01*
X149477415Y-114998113D01*
X149477413Y-114998113D01*
X149386983Y-114990073D01*
X149358037Y-114987500D01*
X149358035Y-114987500D01*
X149358034Y-114987500D01*
X145003081Y-114987500D01*
X139241964Y-114987501D01*
X139212727Y-114990100D01*
X139122584Y-114998113D01*
X138926954Y-115054089D01*
X138836771Y-115101196D01*
X138746593Y-115148302D01*
X138746591Y-115148303D01*
X138746590Y-115148304D01*
X138588890Y-115276890D01*
X138460304Y-115434590D01*
X138366089Y-115614954D01*
X138310114Y-115810583D01*
X138310113Y-115810586D01*
X138299500Y-115929965D01*
X138299500Y-115929966D01*
X138299501Y-126046032D01*
X138299501Y-126046033D01*
X138310113Y-126165415D01*
X138366089Y-126361045D01*
X138366090Y-126361048D01*
X138366091Y-126361049D01*
X138460302Y-126541407D01*
X138460304Y-126541409D01*
X138588890Y-126699109D01*
X138682803Y-126775684D01*
X138746593Y-126827698D01*
X138926951Y-126921909D01*
X139122582Y-126977886D01*
X139241963Y-126988500D01*
X139241964Y-126988499D01*
X139241965Y-126988500D01*
X139241966Y-126988500D01*
X143505115Y-126988499D01*
X149358036Y-126988499D01*
X149477418Y-126977886D01*
X149673049Y-126921909D01*
X149853407Y-126827698D01*
X150011109Y-126699109D01*
X150139698Y-126541407D01*
X150233909Y-126361049D01*
X150289886Y-126165418D01*
X150300500Y-126046037D01*
X150300499Y-122845589D01*
X150320184Y-122778551D01*
X150372988Y-122732796D01*
X150442146Y-122722852D01*
X150483924Y-122736757D01*
X150560463Y-122778551D01*
X150671833Y-122839364D01*
X150671832Y-122839364D01*
X150671836Y-122839365D01*
X150671839Y-122839367D01*
X150939954Y-122939369D01*
X150939960Y-122939370D01*
X150939962Y-122939371D01*
X151219566Y-123000195D01*
X151219568Y-123000195D01*
X151219572Y-123000196D01*
X151473220Y-123018337D01*
X151504999Y-123020610D01*
X151505000Y-123020610D01*
X151505001Y-123020610D01*
X151533595Y-123018564D01*
X151790428Y-123000196D01*
X151822019Y-122993324D01*
X152070037Y-122939371D01*
X152070037Y-122939370D01*
X152070046Y-122939369D01*
X152338161Y-122839367D01*
X152589315Y-122702226D01*
X152712363Y-122610113D01*
X152805713Y-122540233D01*
X152871177Y-122515816D01*
X152880023Y-122515500D01*
X153134565Y-122515500D01*
X153134567Y-122515500D01*
X153195784Y-122510427D01*
X153320313Y-122500109D01*
X153320315Y-122500108D01*
X153320321Y-122500108D01*
X153369433Y-122487671D01*
X153414684Y-122476212D01*
X153435391Y-122472799D01*
X153531949Y-122465201D01*
X153748038Y-122410751D01*
X153948721Y-122319596D01*
X154017897Y-122309794D01*
X154051276Y-122319595D01*
X154251962Y-122410751D01*
X154251966Y-122410752D01*
X154468042Y-122465199D01*
X154468045Y-122465199D01*
X154468051Y-122465201D01*
X154575104Y-122473626D01*
X154598914Y-122475500D01*
X154598916Y-122475500D01*
X154628070Y-122475500D01*
X154648478Y-122477190D01*
X154788165Y-122500500D01*
X155036835Y-122500500D01*
X155176521Y-122477191D01*
X155196930Y-122475500D01*
X155226086Y-122475500D01*
X155249896Y-122473626D01*
X155356949Y-122465201D01*
X155573038Y-122410751D01*
X155775933Y-122318592D01*
X155959111Y-122191685D01*
X156116685Y-122034111D01*
X156243592Y-121850933D01*
X156335751Y-121648038D01*
X156390201Y-121431949D01*
X156400500Y-121301084D01*
X156400500Y-121215478D01*
X156400712Y-121210356D01*
X156403562Y-121175972D01*
X156413000Y-121062067D01*
X156413000Y-117679518D01*
X156413477Y-117671842D01*
X156416857Y-117644720D01*
X156416857Y-117644719D01*
X156413000Y-117551464D01*
X156413000Y-117520434D01*
X156410437Y-117489509D01*
X156406581Y-117396269D01*
X156406581Y-117396263D01*
X156400973Y-117369516D01*
X156399864Y-117361906D01*
X156397609Y-117334687D01*
X156397607Y-117334676D01*
X156374702Y-117244226D01*
X156367589Y-117210302D01*
X156355550Y-117152886D01*
X156345612Y-117127420D01*
X156343274Y-117120123D01*
X156336563Y-117093619D01*
X156299080Y-117008167D01*
X156265156Y-116921227D01*
X156251165Y-116897748D01*
X156247650Y-116890918D01*
X156236673Y-116865893D01*
X156232888Y-116860100D01*
X156185637Y-116787775D01*
X156156083Y-116738179D01*
X156137866Y-116707606D01*
X156137863Y-116707602D01*
X156120204Y-116686752D01*
X156115605Y-116680585D01*
X156100666Y-116657718D01*
X156100664Y-116657715D01*
X156037457Y-116589054D01*
X156017400Y-116565372D01*
X155995461Y-116543433D01*
X155932247Y-116474765D01*
X155932239Y-116474758D01*
X155910677Y-116457976D01*
X155904919Y-116452892D01*
X151684615Y-112232587D01*
X151679524Y-112226822D01*
X151662739Y-112205257D01*
X151594078Y-112142049D01*
X151572129Y-112120100D01*
X151548435Y-112100033D01*
X151526831Y-112080145D01*
X151479785Y-112036836D01*
X151456904Y-112021887D01*
X151450747Y-112017296D01*
X151429894Y-111999634D01*
X151349720Y-111951860D01*
X151271607Y-111900827D01*
X151271604Y-111900825D01*
X151246588Y-111889852D01*
X151239750Y-111886332D01*
X151216275Y-111872344D01*
X151129335Y-111838420D01*
X151043881Y-111800937D01*
X151043877Y-111800936D01*
X151043875Y-111800935D01*
X151017387Y-111794227D01*
X151010067Y-111791882D01*
X150993593Y-111785454D01*
X150984614Y-111781951D01*
X150893288Y-111762801D01*
X150893287Y-111762800D01*
X150802819Y-111739891D01*
X150775590Y-111737635D01*
X150767983Y-111736526D01*
X150747986Y-111732334D01*
X150741237Y-111730919D01*
X150741235Y-111730918D01*
X150647990Y-111727062D01*
X150617067Y-111724500D01*
X150617064Y-111724500D01*
X150586035Y-111724500D01*
X150492780Y-111720643D01*
X150492779Y-111720643D01*
X150465652Y-111724024D01*
X150457981Y-111724500D01*
X150256041Y-111724500D01*
X150189002Y-111704815D01*
X150143247Y-111652011D01*
X150133303Y-111582853D01*
X150146130Y-111543092D01*
X150233909Y-111375049D01*
X150289886Y-111179418D01*
X150300500Y-111060037D01*
X150300500Y-110385374D01*
X188895723Y-110385374D01*
X188925881Y-110685161D01*
X188925882Y-110685163D01*
X188995728Y-110978253D01*
X188995733Y-110978267D01*
X189104020Y-111259428D01*
X189104024Y-111259437D01*
X189248825Y-111523666D01*
X189248829Y-111523672D01*
X189391613Y-111717460D01*
X189427554Y-111766239D01*
X189637020Y-111982825D01*
X189683822Y-112019784D01*
X189873478Y-112169554D01*
X189873480Y-112169555D01*
X189873485Y-112169559D01*
X190132730Y-112323110D01*
X190410128Y-112440737D01*
X190700729Y-112520341D01*
X190999347Y-112560501D01*
X190999351Y-112560501D01*
X192925252Y-112560501D01*
X193089164Y-112549527D01*
X193150634Y-112545413D01*
X193445903Y-112485397D01*
X193730537Y-112386561D01*
X193999459Y-112250669D01*
X194247869Y-112080145D01*
X194471333Y-111878033D01*
X194665865Y-111647940D01*
X194827993Y-111393971D01*
X194954823Y-111120659D01*
X195044093Y-110832880D01*
X195094209Y-110535771D01*
X195099237Y-110385374D01*
X201395723Y-110385374D01*
X201425881Y-110685161D01*
X201425882Y-110685163D01*
X201495728Y-110978253D01*
X201495733Y-110978267D01*
X201604020Y-111259428D01*
X201604024Y-111259437D01*
X201748825Y-111523666D01*
X201748829Y-111523672D01*
X201891613Y-111717460D01*
X201927554Y-111766239D01*
X202137020Y-111982825D01*
X202183822Y-112019784D01*
X202373478Y-112169554D01*
X202373480Y-112169555D01*
X202373485Y-112169559D01*
X202632730Y-112323110D01*
X202910128Y-112440737D01*
X203200729Y-112520341D01*
X203499347Y-112560501D01*
X203499351Y-112560501D01*
X205425252Y-112560501D01*
X205589164Y-112549527D01*
X205650634Y-112545413D01*
X205945903Y-112485397D01*
X206230537Y-112386561D01*
X206499459Y-112250669D01*
X206747869Y-112080145D01*
X206971333Y-111878033D01*
X207165865Y-111647940D01*
X207327993Y-111393971D01*
X207454823Y-111120659D01*
X207544093Y-110832880D01*
X207594209Y-110535771D01*
X207604277Y-110234632D01*
X207574118Y-109934839D01*
X207504269Y-109641740D01*
X207395977Y-109360567D01*
X207251175Y-109096336D01*
X207072446Y-108853763D01*
X206862980Y-108637177D01*
X206739737Y-108539853D01*
X206692885Y-108502854D01*
X206652472Y-108445858D01*
X206649289Y-108376061D01*
X206684346Y-108315623D01*
X206699553Y-108303311D01*
X206747869Y-108270145D01*
X206971333Y-108068033D01*
X207165865Y-107837940D01*
X207327993Y-107583971D01*
X207454823Y-107310659D01*
X207544093Y-107022880D01*
X207594209Y-106725771D01*
X207604277Y-106424632D01*
X207574118Y-106124839D01*
X207504269Y-105831740D01*
X207395977Y-105550567D01*
X207251175Y-105286336D01*
X207072446Y-105043763D01*
X206862980Y-104827177D01*
X206739742Y-104729857D01*
X206626521Y-104640447D01*
X206626517Y-104640444D01*
X206626515Y-104640443D01*
X206367270Y-104486892D01*
X206089872Y-104369265D01*
X206089863Y-104369262D01*
X205799272Y-104289661D01*
X205724616Y-104279620D01*
X205500653Y-104249501D01*
X203574756Y-104249501D01*
X203574748Y-104249501D01*
X203349368Y-104264588D01*
X203349359Y-104264590D01*
X203054094Y-104324605D01*
X202769464Y-104423440D01*
X202769459Y-104423442D01*
X202500546Y-104559329D01*
X202252125Y-104729861D01*
X202028665Y-104931970D01*
X201834132Y-105162065D01*
X201672006Y-105416031D01*
X201672005Y-105416033D01*
X201545181Y-105689334D01*
X201545177Y-105689343D01*
X201545176Y-105689347D01*
X201455907Y-105977119D01*
X201405791Y-106274231D01*
X201395723Y-106575374D01*
X201425881Y-106875161D01*
X201425882Y-106875163D01*
X201495728Y-107168253D01*
X201495733Y-107168267D01*
X201604020Y-107449428D01*
X201604024Y-107449437D01*
X201748825Y-107713666D01*
X201748829Y-107713672D01*
X201927551Y-107956235D01*
X201927554Y-107956239D01*
X202137020Y-108172825D01*
X202307114Y-108307147D01*
X202347527Y-108364142D01*
X202350710Y-108433939D01*
X202315653Y-108494377D01*
X202300444Y-108506690D01*
X202252135Y-108539853D01*
X202028665Y-108741970D01*
X201834132Y-108972065D01*
X201672006Y-109226031D01*
X201672005Y-109226033D01*
X201566503Y-109453386D01*
X201545177Y-109499343D01*
X201545176Y-109499347D01*
X201455907Y-109787119D01*
X201405791Y-110084231D01*
X201395723Y-110385374D01*
X195099237Y-110385374D01*
X195104277Y-110234632D01*
X195074118Y-109934839D01*
X195004269Y-109641740D01*
X194895977Y-109360567D01*
X194751175Y-109096336D01*
X194572446Y-108853763D01*
X194362980Y-108637177D01*
X194239737Y-108539853D01*
X194192885Y-108502854D01*
X194152472Y-108445858D01*
X194149289Y-108376061D01*
X194184346Y-108315623D01*
X194199553Y-108303311D01*
X194247869Y-108270145D01*
X194471333Y-108068033D01*
X194665865Y-107837940D01*
X194827993Y-107583971D01*
X194954823Y-107310659D01*
X195044093Y-107022880D01*
X195094209Y-106725771D01*
X195104277Y-106424632D01*
X195074118Y-106124839D01*
X195004269Y-105831740D01*
X194895977Y-105550567D01*
X194751175Y-105286336D01*
X194572446Y-105043763D01*
X194362980Y-104827177D01*
X194239742Y-104729857D01*
X194126521Y-104640447D01*
X194126517Y-104640444D01*
X194126515Y-104640443D01*
X193867270Y-104486892D01*
X193589872Y-104369265D01*
X193589863Y-104369262D01*
X193299272Y-104289661D01*
X193224616Y-104279620D01*
X193000653Y-104249501D01*
X191074756Y-104249501D01*
X191074748Y-104249501D01*
X190849368Y-104264588D01*
X190849359Y-104264590D01*
X190554094Y-104324605D01*
X190269464Y-104423440D01*
X190269459Y-104423442D01*
X190000546Y-104559329D01*
X189752125Y-104729861D01*
X189528665Y-104931970D01*
X189334132Y-105162065D01*
X189172006Y-105416031D01*
X189172005Y-105416033D01*
X189045181Y-105689334D01*
X189045177Y-105689343D01*
X189045176Y-105689347D01*
X188955907Y-105977119D01*
X188905791Y-106274231D01*
X188895723Y-106575374D01*
X188925881Y-106875161D01*
X188925882Y-106875163D01*
X188995728Y-107168253D01*
X188995733Y-107168267D01*
X189104020Y-107449428D01*
X189104024Y-107449437D01*
X189248825Y-107713666D01*
X189248829Y-107713672D01*
X189427551Y-107956235D01*
X189427554Y-107956239D01*
X189637020Y-108172825D01*
X189807114Y-108307147D01*
X189847527Y-108364142D01*
X189850710Y-108433939D01*
X189815653Y-108494377D01*
X189800444Y-108506690D01*
X189752135Y-108539853D01*
X189528665Y-108741970D01*
X189334132Y-108972065D01*
X189172006Y-109226031D01*
X189172005Y-109226033D01*
X189066503Y-109453386D01*
X189045177Y-109499343D01*
X189045176Y-109499347D01*
X188955907Y-109787119D01*
X188905791Y-110084231D01*
X188895723Y-110385374D01*
X150300500Y-110385374D01*
X150300499Y-100943964D01*
X150289886Y-100824582D01*
X150233909Y-100628951D01*
X150139698Y-100448593D01*
X150087684Y-100384803D01*
X150011109Y-100290890D01*
X149853409Y-100162304D01*
X149853410Y-100162304D01*
X149853407Y-100162302D01*
X149673049Y-100068091D01*
X149673048Y-100068090D01*
X149673045Y-100068089D01*
X149555829Y-100034550D01*
X149477418Y-100012114D01*
X149477415Y-100012113D01*
X149477413Y-100012113D01*
X149386983Y-100004073D01*
X149358037Y-100001500D01*
X149358035Y-100001500D01*
X149358034Y-100001500D01*
X145003081Y-100001500D01*
X139241964Y-100001501D01*
X139212727Y-100004100D01*
X139122584Y-100012113D01*
X138926954Y-100068089D01*
X138836771Y-100115196D01*
X138746593Y-100162302D01*
X138746591Y-100162303D01*
X138746590Y-100162304D01*
X138588890Y-100290890D01*
X138460304Y-100448590D01*
X138366089Y-100628954D01*
X138310114Y-100824583D01*
X138310113Y-100824586D01*
X138299500Y-100943965D01*
X138299500Y-100943966D01*
X138299501Y-111060032D01*
X138299501Y-111060033D01*
X138310113Y-111179415D01*
X138366089Y-111375045D01*
X138366090Y-111375048D01*
X138366091Y-111375049D01*
X138453868Y-111543090D01*
X138467459Y-111611623D01*
X138441840Y-111676627D01*
X138385145Y-111717460D01*
X138343959Y-111724500D01*
X137656041Y-111724500D01*
X137589002Y-111704815D01*
X137543247Y-111652011D01*
X137533303Y-111582853D01*
X137546130Y-111543092D01*
X137633909Y-111375049D01*
X137689886Y-111179418D01*
X137700500Y-111060037D01*
X137700499Y-100943964D01*
X137689886Y-100824582D01*
X137633909Y-100628951D01*
X137539698Y-100448593D01*
X137487684Y-100384803D01*
X137411109Y-100290890D01*
X137253409Y-100162304D01*
X137253410Y-100162304D01*
X137253407Y-100162302D01*
X137073049Y-100068091D01*
X137073048Y-100068090D01*
X137073045Y-100068089D01*
X136955829Y-100034550D01*
X136877418Y-100012114D01*
X136877415Y-100012113D01*
X136877413Y-100012113D01*
X136786983Y-100004073D01*
X136758037Y-100001500D01*
X136758035Y-100001500D01*
X136758034Y-100001500D01*
X132420169Y-100001500D01*
X126641964Y-100001501D01*
X126612727Y-100004100D01*
X126522584Y-100012113D01*
X126326954Y-100068089D01*
X126236771Y-100115196D01*
X126146593Y-100162302D01*
X126146591Y-100162303D01*
X126146590Y-100162304D01*
X125988890Y-100290890D01*
X125860304Y-100448590D01*
X125766089Y-100628954D01*
X125710114Y-100824583D01*
X125710113Y-100824586D01*
X125699500Y-100943965D01*
X125699500Y-100943966D01*
X125699501Y-111060032D01*
X125699501Y-111060033D01*
X125710113Y-111179415D01*
X125766089Y-111375045D01*
X125766090Y-111375048D01*
X125766091Y-111375049D01*
X125853868Y-111543090D01*
X125867459Y-111611623D01*
X125841840Y-111676627D01*
X125785145Y-111717460D01*
X125743959Y-111724500D01*
X71297890Y-111724500D01*
X71230851Y-111704815D01*
X71210209Y-111688181D01*
X54322029Y-94800001D01*
X90194390Y-94800001D01*
X90214804Y-95085433D01*
X90275628Y-95365037D01*
X90275630Y-95365043D01*
X90275631Y-95365046D01*
X90375633Y-95633161D01*
X90375635Y-95633166D01*
X90512770Y-95884309D01*
X90512775Y-95884317D01*
X90684254Y-96113387D01*
X90684270Y-96113405D01*
X90886594Y-96315729D01*
X90886612Y-96315745D01*
X91115682Y-96487224D01*
X91115690Y-96487229D01*
X91366833Y-96624364D01*
X91366832Y-96624364D01*
X91366836Y-96624365D01*
X91366839Y-96624367D01*
X91634954Y-96724369D01*
X91634960Y-96724370D01*
X91634962Y-96724371D01*
X91914566Y-96785195D01*
X91914568Y-96785195D01*
X91914572Y-96785196D01*
X92168220Y-96803337D01*
X92199999Y-96805610D01*
X92200000Y-96805610D01*
X92200001Y-96805610D01*
X92228595Y-96803564D01*
X92485428Y-96785196D01*
X92572573Y-96766239D01*
X92765037Y-96724371D01*
X92765037Y-96724370D01*
X92765046Y-96724369D01*
X93033161Y-96624367D01*
X93284315Y-96487226D01*
X93513395Y-96315739D01*
X93715739Y-96113395D01*
X93887226Y-95884315D01*
X94024367Y-95633161D01*
X94116787Y-95385374D01*
X188895723Y-95385374D01*
X188925881Y-95685161D01*
X188925882Y-95685163D01*
X188995728Y-95978253D01*
X188995733Y-95978267D01*
X189104020Y-96259428D01*
X189104024Y-96259437D01*
X189248825Y-96523666D01*
X189248829Y-96523672D01*
X189396704Y-96724369D01*
X189427554Y-96766239D01*
X189427561Y-96766246D01*
X189637019Y-96982824D01*
X189873478Y-97169554D01*
X189873480Y-97169555D01*
X189873485Y-97169559D01*
X190132730Y-97323110D01*
X190410128Y-97440737D01*
X190700729Y-97520341D01*
X190999347Y-97560501D01*
X190999351Y-97560501D01*
X192925252Y-97560501D01*
X193089164Y-97549527D01*
X193150634Y-97545413D01*
X193445903Y-97485397D01*
X193730537Y-97386561D01*
X193999459Y-97250669D01*
X194247869Y-97080145D01*
X194471333Y-96878033D01*
X194665865Y-96647940D01*
X194827993Y-96393971D01*
X194954823Y-96120659D01*
X195044093Y-95832880D01*
X195094209Y-95535771D01*
X195099237Y-95385374D01*
X201395723Y-95385374D01*
X201425881Y-95685161D01*
X201425882Y-95685163D01*
X201495728Y-95978253D01*
X201495733Y-95978267D01*
X201604020Y-96259428D01*
X201604024Y-96259437D01*
X201748825Y-96523666D01*
X201748829Y-96523672D01*
X201896704Y-96724369D01*
X201927554Y-96766239D01*
X201927561Y-96766246D01*
X202137019Y-96982824D01*
X202373478Y-97169554D01*
X202373480Y-97169555D01*
X202373485Y-97169559D01*
X202632730Y-97323110D01*
X202910128Y-97440737D01*
X203200729Y-97520341D01*
X203499347Y-97560501D01*
X203499351Y-97560501D01*
X205425252Y-97560501D01*
X205589164Y-97549527D01*
X205650634Y-97545413D01*
X205945903Y-97485397D01*
X206230537Y-97386561D01*
X206499459Y-97250669D01*
X206747869Y-97080145D01*
X206971333Y-96878033D01*
X207165865Y-96647940D01*
X207327993Y-96393971D01*
X207454823Y-96120659D01*
X207544093Y-95832880D01*
X207594209Y-95535771D01*
X207604277Y-95234632D01*
X207574118Y-94934839D01*
X207504269Y-94641740D01*
X207395977Y-94360567D01*
X207251175Y-94096336D01*
X207072446Y-93853763D01*
X206862980Y-93637177D01*
X206739737Y-93539853D01*
X206692885Y-93502854D01*
X206652472Y-93445858D01*
X206649289Y-93376061D01*
X206684346Y-93315623D01*
X206699553Y-93303311D01*
X206747869Y-93270145D01*
X206971333Y-93068033D01*
X207165865Y-92837940D01*
X207327993Y-92583971D01*
X207454823Y-92310659D01*
X207544093Y-92022880D01*
X207594209Y-91725771D01*
X207604277Y-91424632D01*
X207574118Y-91124839D01*
X207504269Y-90831740D01*
X207395977Y-90550567D01*
X207251175Y-90286336D01*
X207072446Y-90043763D01*
X206862980Y-89827177D01*
X206739742Y-89729857D01*
X206626521Y-89640447D01*
X206626517Y-89640444D01*
X206626515Y-89640443D01*
X206367270Y-89486892D01*
X206089872Y-89369265D01*
X206089863Y-89369262D01*
X205799272Y-89289661D01*
X205724616Y-89279620D01*
X205500653Y-89249501D01*
X203574756Y-89249501D01*
X203574748Y-89249501D01*
X203349368Y-89264588D01*
X203349359Y-89264590D01*
X203054094Y-89324605D01*
X202769464Y-89423440D01*
X202769459Y-89423442D01*
X202500546Y-89559329D01*
X202252125Y-89729861D01*
X202028665Y-89931970D01*
X201834132Y-90162065D01*
X201672006Y-90416031D01*
X201672005Y-90416033D01*
X201545181Y-90689334D01*
X201545177Y-90689343D01*
X201545176Y-90689347D01*
X201455907Y-90977119D01*
X201405791Y-91274231D01*
X201395723Y-91575374D01*
X201425881Y-91875161D01*
X201425882Y-91875163D01*
X201495728Y-92168253D01*
X201495733Y-92168267D01*
X201604020Y-92449428D01*
X201604024Y-92449437D01*
X201748825Y-92713666D01*
X201748829Y-92713672D01*
X201927551Y-92956235D01*
X201927554Y-92956239D01*
X202137020Y-93172825D01*
X202307114Y-93307147D01*
X202347527Y-93364142D01*
X202350710Y-93433939D01*
X202315653Y-93494377D01*
X202300444Y-93506690D01*
X202252135Y-93539853D01*
X202028665Y-93741970D01*
X201834132Y-93972065D01*
X201672006Y-94226031D01*
X201672005Y-94226033D01*
X201545181Y-94499334D01*
X201545177Y-94499343D01*
X201545176Y-94499347D01*
X201455907Y-94787119D01*
X201430990Y-94934838D01*
X201405791Y-95084231D01*
X201396403Y-95365046D01*
X201395723Y-95385374D01*
X195099237Y-95385374D01*
X195104277Y-95234632D01*
X195074118Y-94934839D01*
X195004269Y-94641740D01*
X194895977Y-94360567D01*
X194751175Y-94096336D01*
X194572446Y-93853763D01*
X194362980Y-93637177D01*
X194239737Y-93539853D01*
X194192885Y-93502854D01*
X194152472Y-93445858D01*
X194149289Y-93376061D01*
X194184346Y-93315623D01*
X194199553Y-93303311D01*
X194247869Y-93270145D01*
X194471333Y-93068033D01*
X194665865Y-92837940D01*
X194827993Y-92583971D01*
X194954823Y-92310659D01*
X195044093Y-92022880D01*
X195094209Y-91725771D01*
X195104277Y-91424632D01*
X195074118Y-91124839D01*
X195004269Y-90831740D01*
X194895977Y-90550567D01*
X194751175Y-90286336D01*
X194572446Y-90043763D01*
X194362980Y-89827177D01*
X194239742Y-89729857D01*
X194126521Y-89640447D01*
X194126517Y-89640444D01*
X194126515Y-89640443D01*
X193867270Y-89486892D01*
X193589872Y-89369265D01*
X193589863Y-89369262D01*
X193299272Y-89289661D01*
X193224616Y-89279620D01*
X193000653Y-89249501D01*
X191074756Y-89249501D01*
X191074748Y-89249501D01*
X190849368Y-89264588D01*
X190849359Y-89264590D01*
X190554094Y-89324605D01*
X190269464Y-89423440D01*
X190269459Y-89423442D01*
X190000546Y-89559329D01*
X189752125Y-89729861D01*
X189528665Y-89931970D01*
X189334132Y-90162065D01*
X189172006Y-90416031D01*
X189172005Y-90416033D01*
X189045181Y-90689334D01*
X189045177Y-90689343D01*
X189045176Y-90689347D01*
X188955907Y-90977119D01*
X188905791Y-91274231D01*
X188895723Y-91575374D01*
X188925881Y-91875161D01*
X188925882Y-91875163D01*
X188995728Y-92168253D01*
X188995733Y-92168267D01*
X189104020Y-92449428D01*
X189104024Y-92449437D01*
X189248825Y-92713666D01*
X189248829Y-92713672D01*
X189427551Y-92956235D01*
X189427554Y-92956239D01*
X189637020Y-93172825D01*
X189807114Y-93307147D01*
X189847527Y-93364142D01*
X189850710Y-93433939D01*
X189815653Y-93494377D01*
X189800444Y-93506690D01*
X189752135Y-93539853D01*
X189528665Y-93741970D01*
X189334132Y-93972065D01*
X189172006Y-94226031D01*
X189172005Y-94226033D01*
X189045181Y-94499334D01*
X189045177Y-94499343D01*
X189045176Y-94499347D01*
X188955907Y-94787119D01*
X188930990Y-94934838D01*
X188905791Y-95084231D01*
X188896403Y-95365046D01*
X188895723Y-95385374D01*
X94116787Y-95385374D01*
X94124369Y-95365046D01*
X94152739Y-95234631D01*
X94185195Y-95085433D01*
X94185195Y-95085432D01*
X94185196Y-95085428D01*
X94205610Y-94800000D01*
X94185196Y-94514572D01*
X94151694Y-94360567D01*
X94124371Y-94234962D01*
X94124370Y-94234960D01*
X94124369Y-94234954D01*
X94024367Y-93966839D01*
X93962624Y-93853766D01*
X93887229Y-93715690D01*
X93887224Y-93715682D01*
X93715745Y-93486612D01*
X93715729Y-93486594D01*
X93513405Y-93284270D01*
X93513387Y-93284254D01*
X93284317Y-93112775D01*
X93284309Y-93112770D01*
X93033166Y-92975635D01*
X93033167Y-92975635D01*
X92925915Y-92935632D01*
X92765046Y-92875631D01*
X92765043Y-92875630D01*
X92765037Y-92875628D01*
X92485433Y-92814804D01*
X92200001Y-92794390D01*
X92199999Y-92794390D01*
X91914566Y-92814804D01*
X91634962Y-92875628D01*
X91366833Y-92975635D01*
X91115690Y-93112770D01*
X91115682Y-93112775D01*
X90886612Y-93284254D01*
X90886594Y-93284270D01*
X90684270Y-93486594D01*
X90684254Y-93486612D01*
X90512775Y-93715682D01*
X90512770Y-93715690D01*
X90375635Y-93966833D01*
X90275628Y-94234962D01*
X90214804Y-94514566D01*
X90194390Y-94799998D01*
X90194390Y-94800001D01*
X54322029Y-94800001D01*
X43829345Y-84307317D01*
X43795860Y-84245994D01*
X43793343Y-84228489D01*
X43785196Y-84114572D01*
X43724369Y-83834954D01*
X43624367Y-83566839D01*
X43487226Y-83315685D01*
X43487224Y-83315682D01*
X43315745Y-83086612D01*
X43315729Y-83086594D01*
X43113405Y-82884270D01*
X43113387Y-82884254D01*
X42884317Y-82712775D01*
X42884309Y-82712770D01*
X42709602Y-82617372D01*
X42660197Y-82567966D01*
X42645345Y-82499693D01*
X42669762Y-82434229D01*
X42709600Y-82399709D01*
X42781011Y-82360716D01*
X42992915Y-82202087D01*
X43180087Y-82014915D01*
X43338716Y-81803011D01*
X43465574Y-81570689D01*
X43558077Y-81322678D01*
X43614343Y-81064026D01*
X43633227Y-80800000D01*
X43614343Y-80535974D01*
X43558077Y-80277322D01*
X43465574Y-80029311D01*
X43338716Y-79796989D01*
X43222498Y-79641739D01*
X43180093Y-79585092D01*
X43180077Y-79585074D01*
X42992925Y-79397922D01*
X42992907Y-79397906D01*
X42781013Y-79239285D01*
X42781005Y-79239280D01*
X42548694Y-79112428D01*
X42548690Y-79112426D01*
X42300673Y-79019921D01*
X42042034Y-78963658D01*
X42042027Y-78963657D01*
X41778001Y-78944773D01*
X41777999Y-78944773D01*
X41513972Y-78963657D01*
X41513965Y-78963658D01*
X41255326Y-79019921D01*
X41007309Y-79112426D01*
X41007305Y-79112428D01*
X40774994Y-79239280D01*
X40774986Y-79239285D01*
X40563092Y-79397906D01*
X40563074Y-79397922D01*
X40375922Y-79585074D01*
X40375906Y-79585092D01*
X40217285Y-79796986D01*
X40217280Y-79796994D01*
X40090428Y-80029305D01*
X40090426Y-80029309D01*
X39997921Y-80277326D01*
X39941658Y-80535965D01*
X39941657Y-80535972D01*
X39922773Y-80799998D01*
X39922773Y-80800001D01*
X39941657Y-81064027D01*
X39941658Y-81064034D01*
X39997921Y-81322673D01*
X40090426Y-81570690D01*
X40090428Y-81570694D01*
X40217280Y-81803005D01*
X40217285Y-81803013D01*
X40375906Y-82014907D01*
X40375922Y-82014925D01*
X40563074Y-82202077D01*
X40563092Y-82202093D01*
X40774986Y-82360714D01*
X40774994Y-82360719D01*
X40868398Y-82411722D01*
X40917803Y-82461127D01*
X40932655Y-82529400D01*
X40908238Y-82594865D01*
X40868398Y-82629386D01*
X40715690Y-82712770D01*
X40715682Y-82712775D01*
X40486612Y-82884254D01*
X40486594Y-82884270D01*
X40284270Y-83086594D01*
X40284254Y-83086612D01*
X40112775Y-83315682D01*
X40112770Y-83315690D01*
X39975635Y-83566833D01*
X39875628Y-83834962D01*
X39814804Y-84114566D01*
X39794390Y-84399998D01*
X39794390Y-84400001D01*
X30400000Y-84400001D01*
X30400000Y-75939966D01*
X125699500Y-75939966D01*
X125699501Y-86056032D01*
X125699501Y-86056033D01*
X125710113Y-86175415D01*
X125766089Y-86371045D01*
X125766090Y-86371048D01*
X125766091Y-86371049D01*
X125860302Y-86551407D01*
X125860304Y-86551409D01*
X125988890Y-86709109D01*
X126082803Y-86785684D01*
X126146593Y-86837698D01*
X126326951Y-86931909D01*
X126522582Y-86987886D01*
X126641963Y-86998500D01*
X126641964Y-86998499D01*
X126641965Y-86998500D01*
X126641966Y-86998500D01*
X131072000Y-86998499D01*
X136758036Y-86998499D01*
X136877418Y-86987886D01*
X137073049Y-86931909D01*
X137253407Y-86837698D01*
X137411109Y-86709109D01*
X137539698Y-86551407D01*
X137633909Y-86371049D01*
X137689886Y-86175418D01*
X137700500Y-86056037D01*
X137700499Y-75939966D01*
X138299500Y-75939966D01*
X138299501Y-86056032D01*
X138299501Y-86056033D01*
X138310113Y-86175415D01*
X138366089Y-86371045D01*
X138366090Y-86371048D01*
X138366091Y-86371049D01*
X138460302Y-86551407D01*
X138460304Y-86551409D01*
X138588890Y-86709109D01*
X138682803Y-86785684D01*
X138746593Y-86837698D01*
X138926951Y-86931909D01*
X139122582Y-86987886D01*
X139241963Y-86998500D01*
X139241964Y-86998499D01*
X139241965Y-86998500D01*
X139241966Y-86998500D01*
X143505115Y-86998499D01*
X149358036Y-86998499D01*
X149477418Y-86987886D01*
X149673049Y-86931909D01*
X149853407Y-86837698D01*
X150011109Y-86709109D01*
X150139698Y-86551407D01*
X150233909Y-86371049D01*
X150289886Y-86175418D01*
X150300500Y-86056037D01*
X150300499Y-80385373D01*
X188895723Y-80385373D01*
X188925881Y-80685160D01*
X188925882Y-80685162D01*
X188995728Y-80978252D01*
X188995733Y-80978266D01*
X189104020Y-81259427D01*
X189104024Y-81259436D01*
X189248825Y-81523665D01*
X189248829Y-81523671D01*
X189427551Y-81766234D01*
X189427554Y-81766238D01*
X189637020Y-81982824D01*
X189677670Y-82014925D01*
X189873478Y-82169553D01*
X189873480Y-82169554D01*
X189873485Y-82169558D01*
X190132730Y-82323109D01*
X190410128Y-82440736D01*
X190700729Y-82520340D01*
X190999347Y-82560500D01*
X190999351Y-82560500D01*
X192925252Y-82560500D01*
X193089164Y-82549526D01*
X193150634Y-82545412D01*
X193445903Y-82485396D01*
X193730537Y-82386560D01*
X193999459Y-82250668D01*
X194247869Y-82080144D01*
X194471333Y-81878032D01*
X194665865Y-81647939D01*
X194827993Y-81393970D01*
X194954823Y-81120658D01*
X195044093Y-80832879D01*
X195094209Y-80535770D01*
X195099237Y-80385373D01*
X201395723Y-80385373D01*
X201425881Y-80685160D01*
X201425882Y-80685162D01*
X201495728Y-80978252D01*
X201495733Y-80978266D01*
X201604020Y-81259427D01*
X201604024Y-81259436D01*
X201748825Y-81523665D01*
X201748829Y-81523671D01*
X201927551Y-81766234D01*
X201927554Y-81766238D01*
X202137020Y-81982824D01*
X202177670Y-82014925D01*
X202373478Y-82169553D01*
X202373480Y-82169554D01*
X202373485Y-82169558D01*
X202632730Y-82323109D01*
X202910128Y-82440736D01*
X203200729Y-82520340D01*
X203499347Y-82560500D01*
X203499351Y-82560500D01*
X205425252Y-82560500D01*
X205589164Y-82549526D01*
X205650634Y-82545412D01*
X205945903Y-82485396D01*
X206230537Y-82386560D01*
X206499459Y-82250668D01*
X206747869Y-82080144D01*
X206971333Y-81878032D01*
X207165865Y-81647939D01*
X207327993Y-81393970D01*
X207454823Y-81120658D01*
X207544093Y-80832879D01*
X207594209Y-80535770D01*
X207604277Y-80234631D01*
X207574118Y-79934838D01*
X207504269Y-79641739D01*
X207395977Y-79360566D01*
X207251175Y-79096335D01*
X207072446Y-78853762D01*
X206862980Y-78637176D01*
X206739737Y-78539852D01*
X206692885Y-78502853D01*
X206652472Y-78445857D01*
X206649289Y-78376060D01*
X206684346Y-78315622D01*
X206699553Y-78303310D01*
X206747869Y-78270144D01*
X206971333Y-78068032D01*
X207165865Y-77837939D01*
X207327993Y-77583970D01*
X207454823Y-77310658D01*
X207544093Y-77022879D01*
X207594209Y-76725770D01*
X207604277Y-76424631D01*
X207574118Y-76124838D01*
X207504269Y-75831739D01*
X207395977Y-75550566D01*
X207251175Y-75286335D01*
X207072446Y-75043762D01*
X206862980Y-74827176D01*
X206739742Y-74729856D01*
X206626521Y-74640446D01*
X206626517Y-74640443D01*
X206626515Y-74640442D01*
X206367270Y-74486891D01*
X206089872Y-74369264D01*
X206089863Y-74369261D01*
X205799272Y-74289660D01*
X205724616Y-74279620D01*
X205500653Y-74249500D01*
X203574756Y-74249500D01*
X203574748Y-74249500D01*
X203349368Y-74264587D01*
X203349359Y-74264589D01*
X203054094Y-74324604D01*
X202769464Y-74423439D01*
X202769459Y-74423441D01*
X202500546Y-74559328D01*
X202252125Y-74729860D01*
X202028665Y-74931969D01*
X201834132Y-75162064D01*
X201672006Y-75416030D01*
X201672005Y-75416032D01*
X201575056Y-75624954D01*
X201545177Y-75689342D01*
X201545176Y-75689346D01*
X201455907Y-75977118D01*
X201405791Y-76274230D01*
X201395723Y-76575373D01*
X201425881Y-76875160D01*
X201425882Y-76875162D01*
X201495728Y-77168252D01*
X201495733Y-77168266D01*
X201604020Y-77449427D01*
X201604024Y-77449436D01*
X201748825Y-77713665D01*
X201748829Y-77713671D01*
X201927551Y-77956234D01*
X201927554Y-77956238D01*
X202137020Y-78172824D01*
X202307114Y-78307146D01*
X202347527Y-78364141D01*
X202350710Y-78433938D01*
X202315653Y-78494376D01*
X202300444Y-78506689D01*
X202252135Y-78539852D01*
X202028665Y-78741969D01*
X201834132Y-78972064D01*
X201672006Y-79226030D01*
X201672005Y-79226032D01*
X201545181Y-79499333D01*
X201545177Y-79499342D01*
X201545176Y-79499346D01*
X201455907Y-79787118D01*
X201405791Y-80084230D01*
X201395723Y-80385373D01*
X195099237Y-80385373D01*
X195104277Y-80234631D01*
X195074118Y-79934838D01*
X195004269Y-79641739D01*
X194895977Y-79360566D01*
X194751175Y-79096335D01*
X194572446Y-78853762D01*
X194362980Y-78637176D01*
X194239737Y-78539852D01*
X194192885Y-78502853D01*
X194152472Y-78445857D01*
X194149289Y-78376060D01*
X194184346Y-78315622D01*
X194199553Y-78303310D01*
X194247869Y-78270144D01*
X194471333Y-78068032D01*
X194665865Y-77837939D01*
X194827993Y-77583970D01*
X194954823Y-77310658D01*
X195044093Y-77022879D01*
X195094209Y-76725770D01*
X195104277Y-76424631D01*
X195074118Y-76124838D01*
X195004269Y-75831739D01*
X194895977Y-75550566D01*
X194751175Y-75286335D01*
X194572446Y-75043762D01*
X194362980Y-74827176D01*
X194239742Y-74729856D01*
X194126521Y-74640446D01*
X194126517Y-74640443D01*
X194126515Y-74640442D01*
X193867270Y-74486891D01*
X193589872Y-74369264D01*
X193589863Y-74369261D01*
X193299272Y-74289660D01*
X193224616Y-74279620D01*
X193000653Y-74249500D01*
X191074756Y-74249500D01*
X191074748Y-74249500D01*
X190849368Y-74264587D01*
X190849359Y-74264589D01*
X190554094Y-74324604D01*
X190269464Y-74423439D01*
X190269459Y-74423441D01*
X190000546Y-74559328D01*
X189752125Y-74729860D01*
X189528665Y-74931969D01*
X189334132Y-75162064D01*
X189172006Y-75416030D01*
X189172005Y-75416032D01*
X189075056Y-75624954D01*
X189045177Y-75689342D01*
X189045176Y-75689346D01*
X188955907Y-75977118D01*
X188905791Y-76274230D01*
X188895723Y-76575373D01*
X188925881Y-76875160D01*
X188925882Y-76875162D01*
X188995728Y-77168252D01*
X188995733Y-77168266D01*
X189104020Y-77449427D01*
X189104024Y-77449436D01*
X189248825Y-77713665D01*
X189248829Y-77713671D01*
X189427551Y-77956234D01*
X189427554Y-77956238D01*
X189637020Y-78172824D01*
X189807114Y-78307146D01*
X189847527Y-78364141D01*
X189850710Y-78433938D01*
X189815653Y-78494376D01*
X189800444Y-78506689D01*
X189752135Y-78539852D01*
X189528665Y-78741969D01*
X189334132Y-78972064D01*
X189172006Y-79226030D01*
X189172005Y-79226032D01*
X189045181Y-79499333D01*
X189045177Y-79499342D01*
X189045176Y-79499346D01*
X188955907Y-79787118D01*
X188905791Y-80084230D01*
X188895723Y-80385373D01*
X150300499Y-80385373D01*
X150300499Y-75939964D01*
X150289886Y-75820582D01*
X150233909Y-75624951D01*
X150139698Y-75444593D01*
X150087684Y-75380803D01*
X150011109Y-75286890D01*
X149895933Y-75192977D01*
X149853407Y-75158302D01*
X149673049Y-75064091D01*
X149673048Y-75064090D01*
X149673045Y-75064089D01*
X149555829Y-75030550D01*
X149477418Y-75008114D01*
X149477415Y-75008113D01*
X149477413Y-75008113D01*
X149386983Y-75000073D01*
X149358037Y-74997500D01*
X149358035Y-74997500D01*
X149358034Y-74997500D01*
X145003081Y-74997500D01*
X139241964Y-74997501D01*
X139212727Y-75000100D01*
X139122584Y-75008113D01*
X138926954Y-75064089D01*
X138836772Y-75111196D01*
X138746593Y-75158302D01*
X138746591Y-75158303D01*
X138746590Y-75158304D01*
X138588890Y-75286890D01*
X138460304Y-75444590D01*
X138366089Y-75624954D01*
X138310114Y-75820583D01*
X138310113Y-75820586D01*
X138299500Y-75939965D01*
X138299500Y-75939966D01*
X137700499Y-75939966D01*
X137700499Y-75939964D01*
X137689886Y-75820582D01*
X137633909Y-75624951D01*
X137539698Y-75444593D01*
X137487684Y-75380803D01*
X137411109Y-75286890D01*
X137295933Y-75192977D01*
X137253407Y-75158302D01*
X137073049Y-75064091D01*
X137073048Y-75064090D01*
X137073045Y-75064089D01*
X136955829Y-75030550D01*
X136877418Y-75008114D01*
X136877415Y-75008113D01*
X136877413Y-75008113D01*
X136786983Y-75000073D01*
X136758037Y-74997500D01*
X136758035Y-74997500D01*
X136758034Y-74997500D01*
X132420169Y-74997500D01*
X126641964Y-74997501D01*
X126612727Y-75000100D01*
X126522584Y-75008113D01*
X126326954Y-75064089D01*
X126236771Y-75111196D01*
X126146593Y-75158302D01*
X126146591Y-75158303D01*
X126146590Y-75158304D01*
X125988890Y-75286890D01*
X125860304Y-75444590D01*
X125766089Y-75624954D01*
X125710114Y-75820583D01*
X125710113Y-75820586D01*
X125699500Y-75939965D01*
X125699500Y-75939966D01*
X30400000Y-75939966D01*
X30400000Y-59200001D01*
X39772390Y-59200001D01*
X39792804Y-59485433D01*
X39853628Y-59765037D01*
X39853630Y-59765043D01*
X39853631Y-59765046D01*
X39915890Y-59931968D01*
X39953635Y-60033166D01*
X40090770Y-60284309D01*
X40090775Y-60284317D01*
X40262254Y-60513387D01*
X40262270Y-60513405D01*
X40464594Y-60715729D01*
X40464612Y-60715745D01*
X40693682Y-60887224D01*
X40693690Y-60887229D01*
X40944833Y-61024364D01*
X40944832Y-61024364D01*
X40944836Y-61024365D01*
X40944839Y-61024367D01*
X41212954Y-61124369D01*
X41212960Y-61124370D01*
X41212962Y-61124371D01*
X41492566Y-61185195D01*
X41492568Y-61185195D01*
X41492572Y-61185196D01*
X41746220Y-61203337D01*
X41777999Y-61205610D01*
X41778000Y-61205610D01*
X41778001Y-61205610D01*
X41806595Y-61203564D01*
X42063428Y-61185196D01*
X42340886Y-61124839D01*
X42343037Y-61124371D01*
X42343037Y-61124370D01*
X42343046Y-61124369D01*
X42611161Y-61024367D01*
X42862315Y-60887226D01*
X42985363Y-60795113D01*
X43078713Y-60725233D01*
X43144177Y-60700816D01*
X43153023Y-60700500D01*
X43502981Y-60700500D01*
X43510652Y-60700975D01*
X43537779Y-60704357D01*
X43631035Y-60700500D01*
X43662067Y-60700500D01*
X43692990Y-60697937D01*
X43786237Y-60694081D01*
X43812982Y-60688472D01*
X43820582Y-60687364D01*
X43847821Y-60685108D01*
X43847824Y-60685107D01*
X43847826Y-60685107D01*
X43847829Y-60685106D01*
X43938288Y-60662198D01*
X44029614Y-60643049D01*
X44055077Y-60633112D01*
X44062374Y-60630774D01*
X44088881Y-60624063D01*
X44174335Y-60586579D01*
X44261274Y-60552656D01*
X44284761Y-60538659D01*
X44291581Y-60535149D01*
X44316607Y-60524173D01*
X44394720Y-60473139D01*
X44474894Y-60425366D01*
X44495754Y-60407697D01*
X44501894Y-60403117D01*
X44524785Y-60388164D01*
X44593435Y-60324966D01*
X44617126Y-60304902D01*
X44639078Y-60282949D01*
X44707738Y-60219744D01*
X44724530Y-60198167D01*
X44729604Y-60192422D01*
X44922025Y-60000001D01*
X89594390Y-60000001D01*
X89614804Y-60285433D01*
X89675628Y-60565037D01*
X89675630Y-60565043D01*
X89675631Y-60565046D01*
X89775103Y-60831739D01*
X89775635Y-60833166D01*
X89912770Y-61084309D01*
X89912775Y-61084317D01*
X90084254Y-61313387D01*
X90084270Y-61313405D01*
X90286594Y-61515729D01*
X90286612Y-61515745D01*
X90515682Y-61687224D01*
X90515690Y-61687229D01*
X90766833Y-61824364D01*
X90766832Y-61824364D01*
X90766836Y-61824365D01*
X90766839Y-61824367D01*
X91034954Y-61924369D01*
X91034960Y-61924370D01*
X91034962Y-61924371D01*
X91314566Y-61985195D01*
X91314568Y-61985195D01*
X91314572Y-61985196D01*
X91568220Y-62003337D01*
X91599999Y-62005610D01*
X91600000Y-62005610D01*
X91600001Y-62005610D01*
X91628595Y-62003564D01*
X91885428Y-61985196D01*
X92165046Y-61924369D01*
X92433161Y-61824367D01*
X92684315Y-61687226D01*
X92913395Y-61515739D01*
X93115739Y-61313395D01*
X93287226Y-61084315D01*
X93424367Y-60833161D01*
X93524369Y-60565046D01*
X93554754Y-60425370D01*
X93585195Y-60285433D01*
X93585195Y-60285432D01*
X93585196Y-60285428D01*
X93605610Y-60000000D01*
X93585196Y-59714572D01*
X93535667Y-59486892D01*
X93524371Y-59434962D01*
X93524370Y-59434960D01*
X93524369Y-59434954D01*
X93424367Y-59166839D01*
X93287226Y-58915685D01*
X93286393Y-58914572D01*
X93115745Y-58686612D01*
X93115729Y-58686594D01*
X92913405Y-58484270D01*
X92913387Y-58484254D01*
X92684317Y-58312775D01*
X92684309Y-58312770D01*
X92433166Y-58175635D01*
X92433167Y-58175635D01*
X92272448Y-58115690D01*
X92165046Y-58075631D01*
X92165043Y-58075630D01*
X92165037Y-58075628D01*
X91885433Y-58014804D01*
X91600001Y-57994390D01*
X91599999Y-57994390D01*
X91314566Y-58014804D01*
X91034962Y-58075628D01*
X90766833Y-58175635D01*
X90515690Y-58312770D01*
X90515682Y-58312775D01*
X90286612Y-58484254D01*
X90286594Y-58484270D01*
X90084270Y-58686594D01*
X90084254Y-58686612D01*
X89912775Y-58915682D01*
X89912770Y-58915690D01*
X89775635Y-59166833D01*
X89675628Y-59434962D01*
X89614804Y-59714566D01*
X89594390Y-59999998D01*
X89594390Y-60000001D01*
X44922025Y-60000001D01*
X60370208Y-44551819D01*
X60431531Y-44518334D01*
X60457889Y-44515500D01*
X97429610Y-44515500D01*
X97496649Y-44535185D01*
X97517291Y-44551819D01*
X119690564Y-66725092D01*
X119715782Y-66761492D01*
X119756406Y-66850930D01*
X119756407Y-66850932D01*
X119883315Y-67034112D01*
X119883314Y-67034112D01*
X120040887Y-67191684D01*
X120224067Y-67318592D01*
X120224069Y-67318593D01*
X120258106Y-67334053D01*
X120426962Y-67410751D01*
X120426966Y-67410752D01*
X120643042Y-67465199D01*
X120643045Y-67465199D01*
X120643051Y-67465201D01*
X120751556Y-67473740D01*
X120773914Y-67475500D01*
X120773916Y-67475500D01*
X120799786Y-67475500D01*
X120825232Y-67478139D01*
X120858455Y-67485105D01*
X120901263Y-67494081D01*
X121149721Y-67504357D01*
X121304173Y-67485105D01*
X121377409Y-67475977D01*
X121385085Y-67475500D01*
X121401086Y-67475500D01*
X121421684Y-67473878D01*
X121531949Y-67465201D01*
X121748038Y-67410751D01*
X121948721Y-67319596D01*
X122017897Y-67309794D01*
X122051276Y-67319595D01*
X122251962Y-67410751D01*
X122251966Y-67410752D01*
X122468042Y-67465199D01*
X122468045Y-67465199D01*
X122468051Y-67465201D01*
X122576556Y-67473740D01*
X122598914Y-67475500D01*
X122598916Y-67475500D01*
X122611280Y-67475500D01*
X122641721Y-67479295D01*
X122664666Y-67485105D01*
X122664671Y-67485106D01*
X122664679Y-67485108D01*
X122664682Y-67485108D01*
X122664686Y-67485109D01*
X122797876Y-67496145D01*
X122850433Y-67500500D01*
X123173298Y-67500500D01*
X123240337Y-67520185D01*
X123247608Y-67525233D01*
X123470682Y-67692224D01*
X123470690Y-67692229D01*
X123721833Y-67829364D01*
X123721832Y-67829364D01*
X123721836Y-67829365D01*
X123721839Y-67829367D01*
X123989954Y-67929369D01*
X123989960Y-67929370D01*
X123989962Y-67929371D01*
X124269566Y-67990195D01*
X124269568Y-67990195D01*
X124269572Y-67990196D01*
X124523220Y-68008337D01*
X124554999Y-68010610D01*
X124555000Y-68010610D01*
X124555001Y-68010610D01*
X124583595Y-68008564D01*
X124840428Y-67990196D01*
X125120046Y-67929369D01*
X125388161Y-67829367D01*
X125516075Y-67759520D01*
X125584345Y-67744669D01*
X125649810Y-67769085D01*
X125691681Y-67825019D01*
X125699500Y-67868353D01*
X125699501Y-71070032D01*
X125699501Y-71070033D01*
X125710113Y-71189415D01*
X125766089Y-71385045D01*
X125766090Y-71385048D01*
X125766091Y-71385049D01*
X125860302Y-71565407D01*
X125860304Y-71565409D01*
X125988890Y-71723109D01*
X126082803Y-71799684D01*
X126146593Y-71851698D01*
X126326951Y-71945909D01*
X126522582Y-72001886D01*
X126641963Y-72012500D01*
X126641964Y-72012499D01*
X126641965Y-72012500D01*
X126641966Y-72012500D01*
X131072000Y-72012499D01*
X136758036Y-72012499D01*
X136877418Y-72001886D01*
X137073049Y-71945909D01*
X137253407Y-71851698D01*
X137411109Y-71723109D01*
X137539698Y-71565407D01*
X137633909Y-71385049D01*
X137689886Y-71189418D01*
X137700500Y-71070037D01*
X137700499Y-60953966D01*
X138299500Y-60953966D01*
X138299501Y-71070032D01*
X138299501Y-71070033D01*
X138310113Y-71189415D01*
X138366089Y-71385045D01*
X138366090Y-71385048D01*
X138366091Y-71385049D01*
X138460302Y-71565407D01*
X138460304Y-71565409D01*
X138588890Y-71723109D01*
X138682803Y-71799684D01*
X138746593Y-71851698D01*
X138926951Y-71945909D01*
X139122582Y-72001886D01*
X139241963Y-72012500D01*
X139241964Y-72012499D01*
X139241965Y-72012500D01*
X139241966Y-72012500D01*
X143505115Y-72012499D01*
X149358036Y-72012499D01*
X149477418Y-72001886D01*
X149673049Y-71945909D01*
X149853407Y-71851698D01*
X150011109Y-71723109D01*
X150139698Y-71565407D01*
X150233909Y-71385049D01*
X150289886Y-71189418D01*
X150300500Y-71070037D01*
X150300499Y-65385373D01*
X188895723Y-65385373D01*
X188925881Y-65685160D01*
X188925882Y-65685162D01*
X188995728Y-65978252D01*
X188995733Y-65978266D01*
X189104020Y-66259427D01*
X189104024Y-66259436D01*
X189248825Y-66523665D01*
X189248829Y-66523671D01*
X189397237Y-66725092D01*
X189427554Y-66766238D01*
X189427561Y-66766245D01*
X189637019Y-66982823D01*
X189873478Y-67169553D01*
X189873480Y-67169554D01*
X189873485Y-67169558D01*
X190132730Y-67323109D01*
X190410128Y-67440736D01*
X190700729Y-67520340D01*
X190999347Y-67560500D01*
X190999351Y-67560500D01*
X192925252Y-67560500D01*
X193089164Y-67549526D01*
X193150634Y-67545412D01*
X193445903Y-67485396D01*
X193730537Y-67386560D01*
X193999459Y-67250668D01*
X194247869Y-67080144D01*
X194471333Y-66878032D01*
X194665865Y-66647939D01*
X194827993Y-66393970D01*
X194954823Y-66120658D01*
X195044093Y-65832879D01*
X195094209Y-65535770D01*
X195099237Y-65385373D01*
X201395723Y-65385373D01*
X201425881Y-65685160D01*
X201425882Y-65685162D01*
X201495728Y-65978252D01*
X201495733Y-65978266D01*
X201604020Y-66259427D01*
X201604024Y-66259436D01*
X201748825Y-66523665D01*
X201748829Y-66523671D01*
X201897237Y-66725092D01*
X201927554Y-66766238D01*
X201927561Y-66766245D01*
X202137019Y-66982823D01*
X202373478Y-67169553D01*
X202373480Y-67169554D01*
X202373485Y-67169558D01*
X202632730Y-67323109D01*
X202910128Y-67440736D01*
X203200729Y-67520340D01*
X203499347Y-67560500D01*
X203499351Y-67560500D01*
X205425252Y-67560500D01*
X205589164Y-67549526D01*
X205650634Y-67545412D01*
X205945903Y-67485396D01*
X206230537Y-67386560D01*
X206499459Y-67250668D01*
X206747869Y-67080144D01*
X206971333Y-66878032D01*
X207165865Y-66647939D01*
X207327993Y-66393970D01*
X207454823Y-66120658D01*
X207544093Y-65832879D01*
X207594209Y-65535770D01*
X207604277Y-65234631D01*
X207574118Y-64934838D01*
X207504269Y-64641739D01*
X207395977Y-64360566D01*
X207251175Y-64096335D01*
X207072446Y-63853762D01*
X206862980Y-63637176D01*
X206739737Y-63539852D01*
X206692885Y-63502853D01*
X206652472Y-63445857D01*
X206649289Y-63376060D01*
X206684346Y-63315622D01*
X206699553Y-63303310D01*
X206747869Y-63270144D01*
X206971333Y-63068032D01*
X207165865Y-62837939D01*
X207327993Y-62583970D01*
X207454823Y-62310658D01*
X207544093Y-62022879D01*
X207594209Y-61725770D01*
X207604277Y-61424631D01*
X207574118Y-61124838D01*
X207511907Y-60863792D01*
X207504271Y-60831747D01*
X207504270Y-60831746D01*
X207504269Y-60831739D01*
X207395977Y-60550566D01*
X207251175Y-60286335D01*
X207250510Y-60285433D01*
X207167155Y-60172302D01*
X207072446Y-60043762D01*
X206862980Y-59827176D01*
X206739742Y-59729856D01*
X206626521Y-59640446D01*
X206626517Y-59640443D01*
X206626515Y-59640442D01*
X206367270Y-59486891D01*
X206089872Y-59369264D01*
X206089863Y-59369261D01*
X205799272Y-59289660D01*
X205724616Y-59279620D01*
X205500653Y-59249500D01*
X203574756Y-59249500D01*
X203574748Y-59249500D01*
X203349368Y-59264587D01*
X203349359Y-59264589D01*
X203054094Y-59324604D01*
X202769464Y-59423439D01*
X202769459Y-59423441D01*
X202500546Y-59559328D01*
X202252125Y-59729860D01*
X202028665Y-59931969D01*
X201834132Y-60162064D01*
X201672006Y-60416030D01*
X201672005Y-60416032D01*
X201566659Y-60643049D01*
X201545177Y-60689342D01*
X201526824Y-60748504D01*
X201455907Y-60977118D01*
X201437825Y-61084317D01*
X201405791Y-61274230D01*
X201397717Y-61515745D01*
X201395723Y-61575373D01*
X201425881Y-61875160D01*
X201425882Y-61875162D01*
X201495728Y-62168252D01*
X201495733Y-62168266D01*
X201604020Y-62449427D01*
X201604024Y-62449436D01*
X201748825Y-62713665D01*
X201748829Y-62713671D01*
X201927551Y-62956234D01*
X201927554Y-62956238D01*
X202137020Y-63172824D01*
X202307114Y-63307146D01*
X202347527Y-63364141D01*
X202350710Y-63433938D01*
X202315653Y-63494376D01*
X202300444Y-63506689D01*
X202252135Y-63539852D01*
X202028665Y-63741969D01*
X201834132Y-63972064D01*
X201672006Y-64226030D01*
X201672005Y-64226032D01*
X201556581Y-64474767D01*
X201545177Y-64499342D01*
X201540353Y-64514894D01*
X201455907Y-64787118D01*
X201405791Y-65084230D01*
X201395723Y-65385373D01*
X195099237Y-65385373D01*
X195104277Y-65234631D01*
X195074118Y-64934838D01*
X195004269Y-64641739D01*
X194895977Y-64360566D01*
X194751175Y-64096335D01*
X194572446Y-63853762D01*
X194362980Y-63637176D01*
X194239737Y-63539852D01*
X194192885Y-63502853D01*
X194152472Y-63445857D01*
X194149289Y-63376060D01*
X194184346Y-63315622D01*
X194199553Y-63303310D01*
X194247869Y-63270144D01*
X194471333Y-63068032D01*
X194665865Y-62837939D01*
X194827993Y-62583970D01*
X194954823Y-62310658D01*
X195044093Y-62022879D01*
X195094209Y-61725770D01*
X195104277Y-61424631D01*
X195074118Y-61124838D01*
X195011907Y-60863792D01*
X195004271Y-60831747D01*
X195004270Y-60831746D01*
X195004269Y-60831739D01*
X194895977Y-60550566D01*
X194751175Y-60286335D01*
X194750510Y-60285433D01*
X194667155Y-60172302D01*
X194572446Y-60043762D01*
X194362980Y-59827176D01*
X194239742Y-59729856D01*
X194126521Y-59640446D01*
X194126517Y-59640443D01*
X194126515Y-59640442D01*
X193867270Y-59486891D01*
X193589872Y-59369264D01*
X193589863Y-59369261D01*
X193299272Y-59289660D01*
X193224616Y-59279620D01*
X193000653Y-59249500D01*
X191074756Y-59249500D01*
X191074748Y-59249500D01*
X190849368Y-59264587D01*
X190849359Y-59264589D01*
X190554094Y-59324604D01*
X190269464Y-59423439D01*
X190269459Y-59423441D01*
X190000546Y-59559328D01*
X189752125Y-59729860D01*
X189528665Y-59931969D01*
X189334132Y-60162064D01*
X189172006Y-60416030D01*
X189172005Y-60416032D01*
X189066659Y-60643049D01*
X189045177Y-60689342D01*
X189026824Y-60748504D01*
X188955907Y-60977118D01*
X188937825Y-61084317D01*
X188905791Y-61274230D01*
X188897717Y-61515745D01*
X188895723Y-61575373D01*
X188925881Y-61875160D01*
X188925882Y-61875162D01*
X188995728Y-62168252D01*
X188995733Y-62168266D01*
X189104020Y-62449427D01*
X189104024Y-62449436D01*
X189248825Y-62713665D01*
X189248829Y-62713671D01*
X189427551Y-62956234D01*
X189427554Y-62956238D01*
X189637020Y-63172824D01*
X189807114Y-63307146D01*
X189847527Y-63364141D01*
X189850710Y-63433938D01*
X189815653Y-63494376D01*
X189800444Y-63506689D01*
X189752135Y-63539852D01*
X189528665Y-63741969D01*
X189334132Y-63972064D01*
X189172006Y-64226030D01*
X189172005Y-64226032D01*
X189056581Y-64474767D01*
X189045177Y-64499342D01*
X189040353Y-64514894D01*
X188955907Y-64787118D01*
X188905791Y-65084230D01*
X188895723Y-65385373D01*
X150300499Y-65385373D01*
X150300499Y-60953964D01*
X150289886Y-60834582D01*
X150233909Y-60638951D01*
X150139698Y-60458593D01*
X150082270Y-60388163D01*
X150011109Y-60300890D01*
X149853409Y-60172304D01*
X149853410Y-60172304D01*
X149853407Y-60172302D01*
X149673049Y-60078091D01*
X149673048Y-60078090D01*
X149673045Y-60078089D01*
X149553046Y-60043754D01*
X149477418Y-60022114D01*
X149477415Y-60022113D01*
X149477413Y-60022113D01*
X149386983Y-60014073D01*
X149358037Y-60011500D01*
X149358035Y-60011500D01*
X149358034Y-60011500D01*
X145152877Y-60011500D01*
X139241964Y-60011501D01*
X139212727Y-60014100D01*
X139122584Y-60022113D01*
X138926954Y-60078089D01*
X138836771Y-60125196D01*
X138746593Y-60172302D01*
X138746591Y-60172303D01*
X138746590Y-60172304D01*
X138588890Y-60300890D01*
X138460304Y-60458590D01*
X138366089Y-60638954D01*
X138321332Y-60795376D01*
X138310928Y-60831739D01*
X138310114Y-60834583D01*
X138310113Y-60834586D01*
X138299500Y-60953965D01*
X138299500Y-60953966D01*
X137700499Y-60953966D01*
X137700499Y-60953964D01*
X137689886Y-60834582D01*
X137633909Y-60638951D01*
X137539698Y-60458593D01*
X137482270Y-60388163D01*
X137411109Y-60300890D01*
X137253409Y-60172304D01*
X137253410Y-60172304D01*
X137253407Y-60172302D01*
X137073049Y-60078091D01*
X137073048Y-60078090D01*
X137073045Y-60078089D01*
X136953046Y-60043754D01*
X136877418Y-60022114D01*
X136877415Y-60022113D01*
X136877413Y-60022113D01*
X136786983Y-60014073D01*
X136758037Y-60011500D01*
X136758035Y-60011500D01*
X136758034Y-60011500D01*
X132420169Y-60011500D01*
X126641964Y-60011501D01*
X126612727Y-60014100D01*
X126522584Y-60022113D01*
X126326954Y-60078089D01*
X126236771Y-60125196D01*
X126146593Y-60172302D01*
X126146591Y-60172303D01*
X126146590Y-60172304D01*
X125988890Y-60300890D01*
X125860304Y-60458590D01*
X125766089Y-60638954D01*
X125721332Y-60795376D01*
X125710928Y-60831739D01*
X125710114Y-60834583D01*
X125710113Y-60834586D01*
X125699500Y-60953965D01*
X125699500Y-60953966D01*
X125699499Y-64141646D01*
X125679814Y-64208685D01*
X125627010Y-64254440D01*
X125557852Y-64264384D01*
X125516072Y-64250478D01*
X125388166Y-64180635D01*
X125388167Y-64180635D01*
X125280914Y-64140632D01*
X125120046Y-64080631D01*
X125120043Y-64080630D01*
X125120037Y-64080628D01*
X124840433Y-64019804D01*
X124555001Y-63999390D01*
X124554999Y-63999390D01*
X124269566Y-64019804D01*
X123989962Y-64080628D01*
X123721833Y-64180635D01*
X123470690Y-64317770D01*
X123470682Y-64317775D01*
X123260966Y-64474767D01*
X123195502Y-64499184D01*
X123186656Y-64499500D01*
X122850433Y-64499500D01*
X122831021Y-64501108D01*
X122664686Y-64514890D01*
X122664666Y-64514894D01*
X122641721Y-64520705D01*
X122611280Y-64524500D01*
X122598914Y-64524500D01*
X122468048Y-64534799D01*
X122468042Y-64534800D01*
X122251966Y-64589247D01*
X122251963Y-64589248D01*
X122051281Y-64680402D01*
X121982102Y-64690205D01*
X121948719Y-64680402D01*
X121861492Y-64640782D01*
X121825092Y-64615564D01*
X99232115Y-42022587D01*
X99227024Y-42016822D01*
X99210239Y-41995257D01*
X99141578Y-41932049D01*
X99119629Y-41910100D01*
X99095935Y-41890033D01*
X99027286Y-41826837D01*
X99027285Y-41826836D01*
X99004404Y-41811887D01*
X98998247Y-41807296D01*
X98977394Y-41789634D01*
X98897220Y-41741860D01*
X98819107Y-41690827D01*
X98819104Y-41690825D01*
X98794088Y-41679852D01*
X98787250Y-41676332D01*
X98763775Y-41662344D01*
X98676835Y-41628420D01*
X98676833Y-41628419D01*
X98591381Y-41590937D01*
X98591377Y-41590936D01*
X98591375Y-41590935D01*
X98564887Y-41584227D01*
X98557567Y-41581882D01*
X98532119Y-41571953D01*
X98532114Y-41571951D01*
X98440788Y-41552801D01*
X98440772Y-41552797D01*
X98350319Y-41529891D01*
X98323090Y-41527635D01*
X98315483Y-41526526D01*
X98295486Y-41522334D01*
X98288737Y-41520919D01*
X98288735Y-41520918D01*
X98195490Y-41517062D01*
X98164567Y-41514500D01*
X98164564Y-41514500D01*
X98133535Y-41514500D01*
X98040280Y-41510643D01*
X98040279Y-41510643D01*
X98013152Y-41514024D01*
X98005481Y-41514500D01*
X59882020Y-41514500D01*
X59874348Y-41514024D01*
X59847222Y-41510643D01*
X59847220Y-41510643D01*
X59753965Y-41514500D01*
X59722933Y-41514500D01*
X59702316Y-41516208D01*
X59692007Y-41517062D01*
X59598765Y-41520918D01*
X59598751Y-41520920D01*
X59572017Y-41526526D01*
X59564409Y-41527635D01*
X59537185Y-41529890D01*
X59537175Y-41529892D01*
X59464815Y-41548215D01*
X59446725Y-41552797D01*
X59432755Y-41555726D01*
X59355390Y-41571948D01*
X59355375Y-41571953D01*
X59329920Y-41581886D01*
X59322599Y-41584231D01*
X59296119Y-41590937D01*
X59296113Y-41590939D01*
X59210667Y-41628419D01*
X59123723Y-41662345D01*
X59100247Y-41676333D01*
X59093413Y-41679851D01*
X59068388Y-41690829D01*
X59068385Y-41690830D01*
X58990275Y-41741862D01*
X58910101Y-41789637D01*
X58889250Y-41807297D01*
X58883087Y-41811892D01*
X58860215Y-41826835D01*
X58860212Y-41826838D01*
X58791554Y-41890042D01*
X58767871Y-41910101D01*
X58745934Y-41932038D01*
X58677261Y-41995257D01*
X58677256Y-41995262D01*
X58660472Y-42016826D01*
X58655383Y-42022589D01*
X43111506Y-57566464D01*
X43050183Y-57599949D01*
X42980491Y-57594965D01*
X42949515Y-57578051D01*
X42943025Y-57573193D01*
X42862315Y-57512774D01*
X42862312Y-57512772D01*
X42862309Y-57512770D01*
X42611166Y-57375635D01*
X42611162Y-57375633D01*
X42559635Y-57356414D01*
X42505260Y-57336134D01*
X42449328Y-57294264D01*
X42424911Y-57228799D01*
X42439763Y-57160526D01*
X42489168Y-57111121D01*
X42505257Y-57103773D01*
X42548689Y-57087574D01*
X42781011Y-56960716D01*
X42992915Y-56802087D01*
X43180087Y-56614915D01*
X43338716Y-56403011D01*
X43465574Y-56170689D01*
X43558077Y-55922678D01*
X43614343Y-55664026D01*
X43633227Y-55400000D01*
X43614343Y-55135974D01*
X43558077Y-54877322D01*
X43465574Y-54629311D01*
X43338716Y-54396989D01*
X43338714Y-54396986D01*
X43180093Y-54185092D01*
X43180077Y-54185074D01*
X42992925Y-53997922D01*
X42992907Y-53997906D01*
X42781013Y-53839285D01*
X42781005Y-53839280D01*
X42548694Y-53712428D01*
X42548690Y-53712426D01*
X42300673Y-53619921D01*
X42042034Y-53563658D01*
X42042027Y-53563657D01*
X41778001Y-53544773D01*
X41777999Y-53544773D01*
X41513972Y-53563657D01*
X41513965Y-53563658D01*
X41255326Y-53619921D01*
X41007309Y-53712426D01*
X41007305Y-53712428D01*
X40774994Y-53839280D01*
X40774986Y-53839285D01*
X40563092Y-53997906D01*
X40563074Y-53997922D01*
X40375922Y-54185074D01*
X40375906Y-54185092D01*
X40217285Y-54396986D01*
X40217280Y-54396994D01*
X40090428Y-54629305D01*
X40090426Y-54629309D01*
X39997921Y-54877326D01*
X39941658Y-55135965D01*
X39941657Y-55135972D01*
X39922773Y-55399998D01*
X39922773Y-55400001D01*
X39941657Y-55664027D01*
X39941658Y-55664034D01*
X39997921Y-55922673D01*
X40090426Y-56170690D01*
X40090428Y-56170694D01*
X40217280Y-56403005D01*
X40217285Y-56403013D01*
X40375906Y-56614907D01*
X40375922Y-56614925D01*
X40563074Y-56802077D01*
X40563092Y-56802093D01*
X40774986Y-56960714D01*
X40774994Y-56960719D01*
X41007305Y-57087571D01*
X41007304Y-57087571D01*
X41007308Y-57087572D01*
X41007311Y-57087574D01*
X41050739Y-57103771D01*
X41106671Y-57145643D01*
X41131088Y-57211107D01*
X41116236Y-57279380D01*
X41066831Y-57328785D01*
X41050742Y-57336132D01*
X40984729Y-57360754D01*
X40944833Y-57375635D01*
X40693690Y-57512770D01*
X40693682Y-57512775D01*
X40464612Y-57684254D01*
X40464594Y-57684270D01*
X40262270Y-57886594D01*
X40262254Y-57886612D01*
X40090775Y-58115682D01*
X40090770Y-58115690D01*
X39953635Y-58366833D01*
X39853628Y-58634962D01*
X39792804Y-58914566D01*
X39772390Y-59199998D01*
X39772390Y-59200001D01*
X30400000Y-59200001D01*
X30400000Y-36425373D01*
X37745723Y-36425373D01*
X37775881Y-36725160D01*
X37775882Y-36725162D01*
X37845728Y-37018252D01*
X37845733Y-37018266D01*
X37954020Y-37299427D01*
X37954024Y-37299436D01*
X38098825Y-37563665D01*
X38098829Y-37563671D01*
X38277551Y-37806234D01*
X38277554Y-37806238D01*
X38277561Y-37806245D01*
X38487019Y-38022823D01*
X38723478Y-38209553D01*
X38723480Y-38209554D01*
X38723485Y-38209558D01*
X38982730Y-38363109D01*
X39260128Y-38480736D01*
X39550729Y-38560340D01*
X39849347Y-38600500D01*
X39849351Y-38600500D01*
X40075252Y-38600500D01*
X40239164Y-38589526D01*
X40300634Y-38585412D01*
X40595903Y-38525396D01*
X40880537Y-38426560D01*
X41149459Y-38290668D01*
X41397869Y-38120144D01*
X41621333Y-37918032D01*
X41815865Y-37687939D01*
X41977993Y-37433970D01*
X42104823Y-37160658D01*
X42194093Y-36872879D01*
X42244209Y-36575770D01*
X42249237Y-36425373D01*
X217745723Y-36425373D01*
X217775881Y-36725160D01*
X217775882Y-36725162D01*
X217845728Y-37018252D01*
X217845733Y-37018266D01*
X217954020Y-37299427D01*
X217954024Y-37299436D01*
X218098825Y-37563665D01*
X218098829Y-37563671D01*
X218277551Y-37806234D01*
X218277554Y-37806238D01*
X218277561Y-37806245D01*
X218487019Y-38022823D01*
X218723478Y-38209553D01*
X218723480Y-38209554D01*
X218723485Y-38209558D01*
X218982730Y-38363109D01*
X219260128Y-38480736D01*
X219550729Y-38560340D01*
X219849347Y-38600500D01*
X219849351Y-38600500D01*
X220075252Y-38600500D01*
X220239163Y-38589526D01*
X220300634Y-38585412D01*
X220595903Y-38525396D01*
X220880537Y-38426560D01*
X221149459Y-38290668D01*
X221397869Y-38120144D01*
X221621333Y-37918032D01*
X221815865Y-37687939D01*
X221977993Y-37433970D01*
X222104823Y-37160658D01*
X222194093Y-36872879D01*
X222244209Y-36575770D01*
X222254277Y-36274631D01*
X222224118Y-35974838D01*
X222154269Y-35681739D01*
X222045977Y-35400566D01*
X221901175Y-35136335D01*
X221722446Y-34893762D01*
X221512980Y-34677176D01*
X221389742Y-34579856D01*
X221276521Y-34490446D01*
X221276517Y-34490443D01*
X221276515Y-34490442D01*
X221017270Y-34336891D01*
X220739872Y-34219264D01*
X220739863Y-34219261D01*
X220449272Y-34139660D01*
X220374616Y-34129620D01*
X220150653Y-34099500D01*
X219924756Y-34099500D01*
X219924748Y-34099500D01*
X219699368Y-34114587D01*
X219699359Y-34114589D01*
X219404094Y-34174604D01*
X219119464Y-34273439D01*
X219119459Y-34273441D01*
X218850546Y-34409328D01*
X218602125Y-34579860D01*
X218378665Y-34781969D01*
X218184132Y-35012064D01*
X218022006Y-35266030D01*
X218022005Y-35266032D01*
X217895181Y-35539333D01*
X217895177Y-35539342D01*
X217895176Y-35539346D01*
X217805907Y-35827118D01*
X217755791Y-36124230D01*
X217745723Y-36425373D01*
X42249237Y-36425373D01*
X42254277Y-36274631D01*
X42224118Y-35974838D01*
X42154269Y-35681739D01*
X42045977Y-35400566D01*
X41901175Y-35136335D01*
X41722446Y-34893762D01*
X41512980Y-34677176D01*
X41389742Y-34579856D01*
X41276521Y-34490446D01*
X41276517Y-34490443D01*
X41276515Y-34490442D01*
X41017270Y-34336891D01*
X40739872Y-34219264D01*
X40739863Y-34219261D01*
X40449272Y-34139660D01*
X40374616Y-34129620D01*
X40150653Y-34099500D01*
X39924756Y-34099500D01*
X39924748Y-34099500D01*
X39699368Y-34114587D01*
X39699359Y-34114589D01*
X39404094Y-34174604D01*
X39119464Y-34273439D01*
X39119459Y-34273441D01*
X38850546Y-34409328D01*
X38602125Y-34579860D01*
X38378665Y-34781969D01*
X38184132Y-35012064D01*
X38022006Y-35266030D01*
X38022005Y-35266032D01*
X37895181Y-35539333D01*
X37895177Y-35539342D01*
X37895176Y-35539346D01*
X37805907Y-35827118D01*
X37755791Y-36124230D01*
X37745723Y-36425373D01*
X30400000Y-36425373D01*
X30400000Y-31403048D01*
X30400299Y-31396967D01*
X30404706Y-31352213D01*
X30418018Y-31217056D01*
X30422757Y-31193232D01*
X30472577Y-31028994D01*
X30481875Y-31006549D01*
X30562775Y-30855195D01*
X30576272Y-30834995D01*
X30685149Y-30702328D01*
X30702328Y-30685149D01*
X30834995Y-30576272D01*
X30855195Y-30562775D01*
X31006549Y-30481875D01*
X31028994Y-30472577D01*
X31193232Y-30422757D01*
X31217056Y-30418018D01*
X31331501Y-30406746D01*
X31396969Y-30400299D01*
X31403049Y-30400000D01*
X228596951Y-30400000D01*
X228603032Y-30400299D01*
G37*
G04 #@! TD.AperFunction*
M02*
